Nobel-Italic.ufo
<glyph name="exclam" format="1">
  <advance width="213"/>
  <unicode hex="0021"/>
  <outline>
    <contour>
      <point x="219" y="730" type="line"/>
      <point x="167" y="435" type="line"/>
      <point x="98" y="156" type="line"/>
      <point x="37" y="156" type="line"/>
      <point x="66" y="435" type="line"/>
      <point x="118" y="730" type="line"/>
    </contour>
    <contour>
      <point x="110" y="110" type="line"/>
      <point x="91" y="0" type="line"/>
      <point x="-10" y="0" type="line"/>
      <point x="9" y="110" type="line"/>
    </contour>
  </outline>
</glyph>
<glyph name="quotedbl" format="1">
  <advance width="341"/>
  <unicode hex="0022"/>
  <outline>
    <contour>
      <point x="352" y="730" type="line"/>
      <point x="333" y="623" type="line"/>
      <point x="293" y="513" type="line"/>
      <point x="238" y="513" type="line"/>
      <point x="238" y="623" type="line"/>
      <point x="257" y="730" type="line"/>
    </contour>
    <contour>
      <point x="206" y="730" type="line"/>
      <point x="187" y="623" type="line"/>
      <point x="147" y="513" type="line"/>
      <point x="92" y="513" type="line"/>
      <point x="92" y="623" type="line"/>
      <point x="111" y="730" type="line"/>
    </contour>
  </outline>
</glyph>
<glyph name="numbersign" format="1">
  <advance width="618"/>
  <unicode hex="0023"/>
  <outline>
    <contour>
      <point x="589" y="526" type="line"/>
      <point x="581" y="450" type="line"/>
      <point x="488" y="450" type="line"/>
      <point x="456" y="283" type="line"/>
      <point x="563" y="283" type="line"/>
      <point x="555" y="207" type="line"/>
      <point x="441" y="207" type="line"/>
      <point x="402" y="0" type="line"/>
      <point x="312" y="0" type="line"/>
      <point x="351" y="207" type="line"/>
      <point x="205" y="207" type="line"/>
      <point x="166" y="0" type="line"/>
      <point x="76" y="0" type="line"/>
      <point x="115" y="207" type="line"/>
      <point x="29" y="207" type="line"/>
      <point x="37" y="283" type="line"/>
      <point x="130" y="283" type="line"/>
      <point x="162" y="450" type="line"/>
      <point x="55" y="450" type="line"/>
      <point x="63" y="526" type="line"/>
      <point x="177" y="526" type="line"/>
      <point x="216" y="730" type="line"/>
      <point x="306" y="730" type="line"/>
      <point x="267" y="526" type="line"/>
      <point x="413" y="526" type="line"/>
      <point x="452" y="730" type="line"/>
      <point x="542" y="730" type="line"/>
      <point x="503" y="526" type="line"/>
    </contour>
    <contour>
      <point x="399" y="450" type="line"/>
      <point x="252" y="450" type="line"/>
      <point x="220" y="283" type="line"/>
      <point x="366" y="283" type="line"/>
    </contour>
  </outline>
</glyph>
<glyph name="dollar" format="1">
  <advance width="490"/>
  <unicode hex="0024"/>
  <outline>
    <contour>
      <point x="489" y="674" type="curve"/>
      <point x="429" y="593" type="line"/>
      <point x="399" y="618"/>
      <point x="363" y="632"/>
      <point x="327" y="637" type="curve"/>
      <point x="288" y="413" type="line"/>
      <point x="359" y="368"/>
      <point x="434" y="314"/>
      <point x="434" y="216" type="curve" smooth="yes"/>
      <point x="434" y="86"/>
      <point x="347" y="12"/>
      <point x="215" y="1" type="curve"/>
      <point x="201" y="-79" type="line"/>
      <point x="135" y="-79" type="line"/>
      <point x="149" y="1" type="line"/>
      <point x="87" y="7"/>
      <point x="26" y="28"/>
      <point x="-19" y="67" type="curve"/>
      <point x="44" y="143" type="line"/>
      <point x="73" y="115"/>
      <point x="122" y="97"/>
      <point x="165" y="92" type="curve"/>
      <point x="209" y="342" type="line"/>
      <point x="140" y="386"/>
      <point x="67" y="434"/>
      <point x="67" y="527" type="curve" smooth="yes"/>
      <point x="67" y="645"/>
      <point x="151" y="718"/>
      <point x="277" y="728" type="curve"/>
      <point x="288" y="788" type="line"/>
      <point x="354" y="788" type="line"/>
      <point x="343" y="729" type="line"/>
      <point x="399" y="724"/>
      <point x="449" y="706"/>
    </contour>
    <contour>
      <point x="261" y="636" type="line"/>
      <point x="198" y="627"/>
      <point x="166" y="593"/>
      <point x="166" y="539" type="curve" smooth="yes"/>
      <point x="166" y="504"/>
      <point x="192" y="477"/>
      <point x="228" y="451" type="curve"/>
    </contour>
    <contour>
      <point x="336" y="195" type="curve" smooth="yes"/>
      <point x="336" y="241"/>
      <point x="307" y="274"/>
      <point x="268" y="303" type="curve"/>
      <point x="231" y="93" type="line"/>
      <point x="295" y="102"/>
      <point x="336" y="133"/>
    </contour>
  </outline>
</glyph>
<glyph name="ampersand" format="1">
  <advance width="606"/>
  <unicode hex="0026"/>
  <outline>
    <contour>
      <point x="550" y="204" type="line"/>
      <point x="522" y="173"/>
      <point x="492" y="143"/>
      <point x="459" y="114" type="curve"/>
      <point x="535" y="0" type="line"/>
      <point x="419" y="0" type="line"/>
      <point x="382" y="57" type="line"/>
      <point x="318" y="15"/>
      <point x="246" y="-12"/>
      <point x="169" y="-12" type="curve" smooth="yes"/>
      <point x="63" y="-12"/>
      <point x="-9" y="58"/>
      <point x="-9" y="146" type="curve" smooth="yes"/>
      <point x="-9" y="261"/>
      <point x="77" y="330"/>
      <point x="167" y="388" type="curve"/>
      <point x="133" y="439"/>
      <point x="107" y="487"/>
      <point x="107" y="542" type="curve" smooth="yes"/>
      <point x="107" y="663"/>
      <point x="219" y="742"/>
      <point x="314" y="742" type="curve" smooth="yes"/>
      <point x="396" y="742"/>
      <point x="463" y="694"/>
      <point x="463" y="606" type="curve" smooth="yes"/>
      <point x="463" y="498"/>
      <point x="379" y="429"/>
      <point x="290" y="370" type="curve"/>
      <point x="412" y="185" type="line"/>
      <point x="439" y="209"/>
      <point x="465" y="236"/>
      <point x="491" y="266" type="curve"/>
    </contour>
    <contour>
      <point x="371" y="593" type="curve" smooth="yes"/>
      <point x="371" y="639"/>
      <point x="346" y="663"/>
      <point x="302" y="663" type="curve" smooth="yes"/>
      <point x="262" y="663"/>
      <point x="202" y="617"/>
      <point x="202" y="552" type="curve" smooth="yes"/>
      <point x="202" y="513"/>
      <point x="217" y="481"/>
      <point x="245" y="438" type="curve"/>
      <point x="315" y="483"/>
      <point x="371" y="528"/>
    </contour>
    <contour>
      <point x="337" y="126" type="curve"/>
      <point x="212" y="319" type="line"/>
      <point x="144" y="274"/>
      <point x="90" y="228"/>
      <point x="90" y="167" type="curve" smooth="yes"/>
      <point x="90" y="112"/>
      <point x="133" y="74"/>
      <point x="191" y="74" type="curve" smooth="yes"/>
      <point x="238" y="74"/>
      <point x="287" y="93"/>
    </contour>
  </outline>
</glyph>
<glyph name="quotesingle" format="1">
  <advance width="195"/>
  <unicode hex="0027"/>
  <outline>
    <contour>
      <point x="204" y="730" type="line"/>
      <point x="185" y="623" type="line"/>
      <point x="145" y="513" type="line"/>
      <point x="90" y="513" type="line"/>
      <point x="90" y="623" type="line"/>
      <point x="109" y="730" type="line"/>
    </contour>
  </outline>
</glyph>
<glyph name="parenleft" format="1">
  <advance width="306"/>
  <unicode hex="0028"/>
  <outline>
    <contour>
      <point x="350" y="749" type="curve"/>
      <point x="336" y="669" type="line"/>
      <point x="208" y="577"/>
      <point x="110" y="394"/>
      <point x="110" y="163" type="curve" smooth="yes"/>
      <point x="110" y="79"/>
      <point x="130" y="-10"/>
      <point x="201" y="-98" type="curve"/>
      <point x="187" y="-179" type="line"/>
      <point x="83" y="-104"/>
      <point x="16" y="48"/>
      <point x="16" y="195" type="curve" smooth="yes"/>
      <point x="16" y="480"/>
      <point x="200" y="667"/>
    </contour>
  </outline>
</glyph>
<glyph name="parenright" format="1">
  <advance width="306"/>
  <unicode hex="0029"/>
  <outline>
    <contour>
      <point x="271" y="375" type="curve" smooth="yes"/>
      <point x="271" y="90"/>
      <point x="87" y="-97"/>
      <point x="-63" y="-179" type="curve"/>
      <point x="-49" y="-99" type="line"/>
      <point x="79" y="-7"/>
      <point x="177" y="176"/>
      <point x="177" y="407" type="curve" smooth="yes"/>
      <point x="177" y="491"/>
      <point x="157" y="580"/>
      <point x="86" y="668" type="curve"/>
      <point x="100" y="749" type="line"/>
      <point x="204" y="674"/>
      <point x="271" y="522"/>
    </contour>
  </outline>
</glyph>
<glyph name="asterisk" format="1">
  <advance width="393"/>
  <unicode hex="002A"/>
  <outline>
    <contour>
      <point x="394" y="568" type="line"/>
      <point x="378" y="518" type="line"/>
      <point x="273" y="543" type="line"/>
      <point x="264" y="435" type="line"/>
      <point x="212" y="435" type="line"/>
      <point x="204" y="543" type="line"/>
      <point x="99" y="518" type="line"/>
      <point x="81" y="567" type="line"/>
      <point x="181" y="610" type="line"/>
      <point x="126" y="701" type="line"/>
      <point x="167" y="733" type="line"/>
      <point x="238" y="651" type="line"/>
      <point x="308" y="732" type="line"/>
      <point x="351" y="702" type="line"/>
      <point x="295" y="609" type="line"/>
    </contour>
  </outline>
</glyph>
<glyph name="plus" format="1">
  <advance width="452"/>
  <unicode hex="002B"/>
  <outline>
    <contour>
      <point x="417" y="374" type="line"/>
      <point x="401" y="288" type="line"/>
      <point x="250" y="288" type="line"/>
      <point x="222" y="125" type="line"/>
      <point x="132" y="125" type="line"/>
      <point x="160" y="288" type="line"/>
      <point x="9" y="288" type="line"/>
      <point x="25" y="374" type="line"/>
      <point x="176" y="374" type="line"/>
      <point x="204" y="537" type="line"/>
      <point x="294" y="537" type="line"/>
      <point x="266" y="374" type="line"/>
    </contour>
  </outline>
</glyph>
<glyph name="comma" format="1">
  <advance width="191"/>
  <unicode hex="002C"/>
  <outline>
    <contour>
      <point x="101" y="110" type="line"/>
      <point x="88" y="34" type="line" smooth="yes"/>
      <point x="72" y="-62"/>
      <point x="18" y="-120"/>
      <point x="-12" y="-145" type="curve"/>
      <point x="-74" y="-145" type="line"/>
      <point x="-56" y="-123"/>
      <point x="-33" y="-77"/>
      <point x="-23" y="-21" type="curve" smooth="yes"/>
      <point x="0" y="110" type="line"/>
    </contour>
  </outline>
</glyph>
<glyph name="hyphen" format="1">
  <advance width="302"/>
  <unicode hex="002D"/>
  <unicode hex="2010"/>
  <unicode hex="2011"/>
  <outline>
    <contour>
      <point x="235" y="254" type="line"/>
      <point x="220" y="168" type="line"/>
      <point x="8" y="168" type="line"/>
      <point x="23" y="254" type="line"/>
    </contour>
  </outline>
</glyph>
<glyph name="period" format="1">
  <advance width="191"/>
  <unicode hex="002E"/>
  <outline>
    <contour>
      <point x="101" y="110" type="line"/>
      <point x="81" y="0" type="line"/>
      <point x="-19" y="0" type="line"/>
      <point x="1" y="110" type="line"/>
    </contour>
  </outline>
</glyph>
<glyph name="slash" format="1">
  <advance width="382"/>
  <unicode hex="002F"/>
  <outline>
    <contour>
      <point x="430" y="730" type="line"/>
      <point x="39" y="0" type="line"/>
      <point x="-48" y="0" type="line"/>
      <point x="343" y="730" type="line"/>
    </contour>
  </outline>
</glyph>
<glyph name="zero" format="1">
  <advance width="570"/>
  <unicode hex="0030"/>
  <outline>
    <contour>
      <point x="550" y="484" type="curve" smooth="yes"/>
      <point x="550" y="234"/>
      <point x="447" y="-12"/>
      <point x="228" y="-12" type="curve" smooth="yes"/>
      <point x="103" y="-12"/>
      <point x="30" y="84"/>
      <point x="30" y="263" type="curve" smooth="yes"/>
      <point x="30" y="539"/>
      <point x="161" y="742"/>
      <point x="352" y="742" type="curve" smooth="yes"/>
      <point x="494" y="742"/>
      <point x="550" y="631"/>
    </contour>
    <contour>
      <point x="448" y="461" type="curve" smooth="yes"/>
      <point x="448" y="585"/>
      <point x="415" y="652"/>
      <point x="332" y="652" type="curve" smooth="yes"/>
      <point x="218" y="652"/>
      <point x="132" y="484"/>
      <point x="132" y="280" type="curve" smooth="yes"/>
      <point x="132" y="165"/>
      <point x="165" y="78"/>
      <point x="248" y="78" type="curve" smooth="yes"/>
      <point x="373" y="78"/>
      <point x="448" y="269"/>
    </contour>
  </outline>
</glyph>
<glyph name="one" format="1">
  <advance width="311"/>
  <unicode hex="0031"/>
  <outline>
    <contour>
      <point x="308" y="730" type="line"/>
      <point x="179" y="0" type="line"/>
      <point x="84" y="0" type="line"/>
      <point x="186" y="575" type="line"/>
      <point x="156" y="551"/>
      <point x="98" y="528"/>
      <point x="48" y="523" type="curve"/>
      <point x="63" y="611" type="line"/>
      <point x="124" y="620"/>
      <point x="196" y="659"/>
      <point x="245" y="730" type="curve"/>
    </contour>
  </outline>
</glyph>
<glyph name="two" format="1">
  <advance width="541"/>
  <unicode hex="0032"/>
  <outline>
    <contour>
      <point x="514" y="565" type="curve" smooth="yes"/>
      <point x="514" y="480"/>
      <point x="469" y="415"/>
      <point x="413" y="352" type="curve" smooth="yes"/>
      <point x="183" y="90" type="line"/>
      <point x="453" y="90" type="line"/>
      <point x="437" y="0" type="line"/>
      <point x="-18" y="0" type="line"/>
      <point x="340" y="401" type="line" smooth="yes"/>
      <point x="387" y="454"/>
      <point x="415" y="506"/>
      <point x="415" y="555" type="curve" smooth="yes"/>
      <point x="415" y="624"/>
      <point x="363" y="651"/>
      <point x="307" y="651" type="curve" smooth="yes"/>
      <point x="220" y="651"/>
      <point x="181" y="581"/>
      <point x="168" y="505" type="curve"/>
      <point x="69" y="505" type="line"/>
      <point x="97" y="661"/>
      <point x="200" y="742"/>
      <point x="319" y="742" type="curve" smooth="yes"/>
      <point x="427" y="742"/>
      <point x="514" y="685"/>
    </contour>
  </outline>
</glyph>
<glyph name="three" format="1">
  <advance width="555"/>
  <unicode hex="0033"/>
  <outline>
    <contour>
      <point x="533" y="591" type="curve" smooth="yes"/>
      <point x="533" y="481"/>
      <point x="464" y="415"/>
      <point x="409" y="392" type="curve"/>
      <point x="469" y="369"/>
      <point x="498" y="313"/>
      <point x="498" y="255" type="curve" smooth="yes"/>
      <point x="498" y="129"/>
      <point x="408" y="-12"/>
      <point x="194" y="-12" type="curve" smooth="yes"/>
      <point x="92" y="-12"/>
      <point x="28" y="15"/>
      <point x="-23" y="54" type="curve"/>
      <point x="42" y="128" type="line"/>
      <point x="81" y="96"/>
      <point x="145" y="74"/>
      <point x="208" y="74" type="curve" smooth="yes"/>
      <point x="327" y="74"/>
      <point x="401" y="152"/>
      <point x="401" y="248" type="curve" smooth="yes"/>
      <point x="401" y="316"/>
      <point x="356" y="350"/>
      <point x="273" y="350" type="curve" smooth="yes"/>
      <point x="192" y="350" type="line"/>
      <point x="208" y="435" type="line"/>
      <point x="290" y="435" type="line" smooth="yes"/>
      <point x="369" y="435"/>
      <point x="437" y="483"/>
      <point x="437" y="567" type="curve" smooth="yes"/>
      <point x="437" y="599"/>
      <point x="427" y="655"/>
      <point x="327" y="655" type="curve" smooth="yes"/>
      <point x="242" y="655"/>
      <point x="189" y="599"/>
      <point x="155" y="554" type="curve"/>
      <point x="81" y="597" type="line"/>
      <point x="117" y="655"/>
      <point x="195" y="742"/>
      <point x="344" y="742" type="curve" smooth="yes"/>
      <point x="484" y="742"/>
      <point x="533" y="662"/>
    </contour>
  </outline>
</glyph>
<glyph name="four" format="1">
  <advance width="546"/>
  <unicode hex="0034"/>
  <outline>
    <contour>
      <point x="522" y="257" type="line"/>
      <point x="507" y="172" type="line"/>
      <point x="405" y="172" type="line"/>
      <point x="375" y="0" type="line"/>
      <point x="282" y="0" type="line"/>
      <point x="312" y="172" type="line"/>
      <point x="-3" y="172" type="line"/>
      <point x="9" y="241" type="line"/>
      <point x="427" y="730" type="line"/>
      <point x="504" y="730" type="line"/>
      <point x="420" y="257" type="line"/>
    </contour>
    <contour>
      <point x="383" y="571" type="line"/>
      <point x="383" y="571"/>
      <point x="376" y="559"/>
      <point x="370" y="552" type="curve" smooth="yes"/>
      <point x="130" y="257" type="line"/>
      <point x="327" y="257" type="line"/>
    </contour>
  </outline>
</glyph>
<glyph name="five" format="1">
  <advance width="556"/>
  <unicode hex="0035"/>
  <outline>
    <contour>
      <point x="543" y="730" type="line"/>
      <point x="528" y="644" type="line"/>
      <point x="243" y="644" type="line"/>
      <point x="197" y="462" type="line"/>
      <point x="227" y="485"/>
      <point x="260" y="501"/>
      <point x="323" y="501" type="curve" smooth="yes"/>
      <point x="432" y="501"/>
      <point x="514" y="431"/>
      <point x="514" y="318" type="curve" smooth="yes"/>
      <point x="514" y="109"/>
      <point x="365" y="-12"/>
      <point x="204" y="-12" type="curve" smooth="yes"/>
      <point x="108" y="-12"/>
      <point x="30" y="32"/>
      <point x="-12" y="72" type="curve"/>
      <point x="50" y="148" type="line"/>
      <point x="81" y="117"/>
      <point x="139" y="78"/>
      <point x="221" y="78" type="curve" smooth="yes"/>
      <point x="331" y="78"/>
      <point x="413" y="182"/>
      <point x="413" y="295" type="curve" smooth="yes"/>
      <point x="413" y="364"/>
      <point x="372" y="415"/>
      <point x="295" y="415" type="curve" smooth="yes"/>
      <point x="237" y="415"/>
      <point x="184" y="385"/>
      <point x="153" y="339" type="curve"/>
      <point x="71" y="339" type="line"/>
      <point x="171" y="730" type="line"/>
    </contour>
  </outline>
</glyph>
<glyph name="six" format="1">
  <advance width="538"/>
  <unicode hex="0036"/>
  <outline>
    <contour>
      <point x="497" y="274" type="curve" smooth="yes"/>
      <point x="497" y="97"/>
      <point x="368" y="-12"/>
      <point x="225" y="-12" type="curve" smooth="yes"/>
      <point x="109" y="-12"/>
      <point x="20" y="61"/>
      <point x="20" y="199" type="curve" smooth="yes"/>
      <point x="20" y="332"/>
      <point x="93" y="493"/>
      <point x="291" y="730" type="curve"/>
      <point x="399" y="730" type="line"/>
      <point x="295" y="612"/>
      <point x="204" y="478"/>
      <point x="176" y="419" type="curve"/>
      <point x="212" y="450"/>
      <point x="263" y="467"/>
      <point x="317" y="467" type="curve" smooth="yes"/>
      <point x="413" y="467"/>
      <point x="497" y="399"/>
    </contour>
    <contour>
      <point x="401" y="253" type="curve" smooth="yes"/>
      <point x="401" y="344"/>
      <point x="362" y="386"/>
      <point x="289" y="386" type="curve" smooth="yes"/>
      <point x="195" y="386"/>
      <point x="115" y="312"/>
      <point x="115" y="198" type="curve" smooth="yes"/>
      <point x="115" y="110"/>
      <point x="177" y="72"/>
      <point x="243" y="72" type="curve" smooth="yes"/>
      <point x="321" y="72"/>
      <point x="401" y="147"/>
    </contour>
  </outline>
</glyph>
<glyph name="seven" format="1">
  <advance width="507"/>
  <unicode hex="0037"/>
  <outline>
    <contour>
      <point x="551" y="730" type="line"/>
      <point x="117" y="0" type="line"/>
      <point x="10" y="0" type="line"/>
      <point x="394" y="642" type="line"/>
      <point x="89" y="642" type="line"/>
      <point x="104" y="730" type="line"/>
    </contour>
  </outline>
</glyph>
<glyph name="eight" format="1">
  <advance width="584"/>
  <unicode hex="0038"/>
  <outline>
    <contour>
      <point x="559" y="574" type="curve" smooth="yes"/>
      <point x="559" y="468"/>
      <point x="490" y="406"/>
      <point x="439" y="384" type="curve"/>
      <point x="483" y="362"/>
      <point x="525" y="314"/>
      <point x="525" y="242" type="curve" smooth="yes"/>
      <point x="525" y="90"/>
      <point x="400" y="-12"/>
      <point x="232" y="-12" type="curve" smooth="yes"/>
      <point x="98" y="-12"/>
      <point x="17" y="56"/>
      <point x="17" y="163" type="curve" smooth="yes"/>
      <point x="17" y="298"/>
      <point x="113" y="366"/>
      <point x="168" y="384" type="curve"/>
      <point x="130" y="407"/>
      <point x="99" y="454"/>
      <point x="99" y="504" type="curve" smooth="yes"/>
      <point x="99" y="630"/>
      <point x="207" y="742"/>
      <point x="365" y="742" type="curve" smooth="yes"/>
      <point x="496" y="742"/>
      <point x="559" y="660"/>
    </contour>
    <contour>
      <point x="459" y="564" type="curve" smooth="yes"/>
      <point x="459" y="624"/>
      <point x="422" y="658"/>
      <point x="350" y="658" type="curve" smooth="yes"/>
      <point x="263" y="658"/>
      <point x="198" y="590"/>
      <point x="198" y="511" type="curve" smooth="yes"/>
      <point x="198" y="447"/>
      <point x="246" y="418"/>
      <point x="308" y="418" type="curve" smooth="yes"/>
      <point x="406" y="418"/>
      <point x="459" y="490"/>
    </contour>
    <contour>
      <point x="424" y="232" type="curve" smooth="yes"/>
      <point x="424" y="297"/>
      <point x="374" y="332"/>
      <point x="293" y="332" type="curve" smooth="yes"/>
      <point x="191" y="332"/>
      <point x="117" y="267"/>
      <point x="117" y="181" type="curve" smooth="yes"/>
      <point x="117" y="110"/>
      <point x="162" y="75"/>
      <point x="248" y="75" type="curve" smooth="yes"/>
      <point x="356" y="75"/>
      <point x="424" y="142"/>
    </contour>
  </outline>
</glyph>
<glyph name="nine" format="1">
  <advance width="541"/>
  <unicode hex="0039"/>
  <outline>
    <contour>
      <point x="529" y="537" type="curve" smooth="yes"/>
      <point x="529" y="378"/>
      <point x="410" y="189"/>
      <point x="233" y="-18" type="curve"/>
      <point x="156" y="35" type="line"/>
      <point x="222" y="110"/>
      <point x="327" y="243"/>
      <point x="360" y="296" type="curve"/>
      <point x="322" y="264"/>
      <point x="273" y="250"/>
      <point x="228" y="250" type="curve" smooth="yes"/>
      <point x="112" y="250"/>
      <point x="42" y="328"/>
      <point x="42" y="459" type="curve" smooth="yes"/>
      <point x="42" y="601"/>
      <point x="156" y="742"/>
      <point x="321" y="742" type="curve" smooth="yes"/>
      <point x="452" y="742"/>
      <point x="529" y="662"/>
    </contour>
    <contour>
      <point x="425" y="526" type="curve" smooth="yes"/>
      <point x="425" y="609"/>
      <point x="387" y="655"/>
      <point x="309" y="655" type="curve" smooth="yes"/>
      <point x="204" y="655"/>
      <point x="144" y="559"/>
      <point x="144" y="472" type="curve" smooth="yes"/>
      <point x="144" y="385"/>
      <point x="177" y="336"/>
      <point x="255" y="336" type="curve" smooth="yes"/>
      <point x="344" y="336"/>
      <point x="425" y="406"/>
    </contour>
  </outline>
</glyph>
<glyph name="colon" format="1">
  <advance width="191"/>
  <unicode hex="003A"/>
  <outline>
    <contour>
      <point x="154" y="416" type="line"/>
      <point x="134" y="306" type="line"/>
      <point x="34" y="306" type="line"/>
      <point x="54" y="416" type="line"/>
    </contour>
    <contour>
      <point x="101" y="110" type="line"/>
      <point x="81" y="0" type="line"/>
      <point x="-19" y="0" type="line"/>
      <point x="1" y="110" type="line"/>
    </contour>
  </outline>
</glyph>
<glyph name="less" format="1">
  <advance width="360"/>
  <unicode hex="003C"/>
  <outline>
    <contour>
      <point x="337" y="545" type="line"/>
      <point x="318" y="437" type="line"/>
      <point x="111" y="322" type="line"/>
      <point x="276" y="198" type="line"/>
      <point x="259" y="102" type="line"/>
      <point x="21" y="287" type="line"/>
      <point x="34" y="362" type="line"/>
    </contour>
  </outline>
</glyph>
<glyph name="equal" format="1">
  <advance width="482"/>
  <unicode hex="003D"/>
  <outline>
    <contour>
      <point x="443" y="474" type="line"/>
      <point x="428" y="388" type="line"/>
      <point x="66" y="388" type="line"/>
      <point x="81" y="474" type="line"/>
    </contour>
    <contour>
      <point x="408" y="278" type="line"/>
      <point x="393" y="192" type="line"/>
      <point x="31" y="192" type="line"/>
      <point x="46" y="278" type="line"/>
    </contour>
  </outline>
</glyph>
<glyph name="greater" format="1">
  <advance width="360"/>
  <unicode hex="003E"/>
  <outline>
    <contour>
      <point x="319" y="360" type="line"/>
      <point x="306" y="285" type="line"/>
      <point x="3" y="102" type="line"/>
      <point x="22" y="210" type="line"/>
      <point x="229" y="325" type="line"/>
      <point x="64" y="449" type="line"/>
      <point x="81" y="545" type="line"/>
    </contour>
  </outline>
</glyph>
<glyph name="question" format="1">
  <advance width="441"/>
  <unicode hex="003F"/>
  <outline>
    <contour>
      <point x="442" y="587" type="curve" smooth="yes"/>
      <point x="442" y="482"/>
      <point x="391" y="430"/>
      <point x="303" y="334" type="curve" smooth="yes"/>
      <point x="261" y="288"/>
      <point x="232" y="231"/>
      <point x="220" y="159" type="curve"/>
      <point x="127" y="159" type="line"/>
      <point x="145" y="261"/>
      <point x="187" y="329"/>
      <point x="241" y="387" type="curve" smooth="yes"/>
      <point x="303" y="454"/>
      <point x="343" y="502"/>
      <point x="343" y="562" type="curve" smooth="yes"/>
      <point x="343" y="624"/>
      <point x="312" y="655"/>
      <point x="255" y="655" type="curve" smooth="yes"/>
      <point x="202" y="655"/>
      <point x="152" y="623"/>
      <point x="113" y="583" type="curve"/>
      <point x="59" y="650" type="line"/>
      <point x="122" y="711"/>
      <point x="188" y="742"/>
      <point x="270" y="742" type="curve" smooth="yes"/>
      <point x="371" y="742"/>
      <point x="442" y="687"/>
    </contour>
    <contour>
      <point x="215" y="110" type="line"/>
      <point x="196" y="0" type="line"/>
      <point x="95" y="0" type="line"/>
      <point x="114" y="110" type="line"/>
    </contour>
  </outline>
</glyph>
<glyph name="A" format="1">
  <advance width="664"/>
  <unicode hex="0041"/>
  <outline>
    <contour>
      <point x="570" y="0" type="line"/>
      <point x="466" y="0" type="line"/>
      <point x="422" y="236" type="line"/>
      <point x="197" y="236" type="line"/>
      <point x="67" y="0" type="line"/>
      <point x="-36" y="0" type="line"/>
      <point x="363" y="730" type="line"/>
      <point x="427" y="730" type="line"/>
    </contour>
    <contour>
      <point x="405" y="326" type="line"/>
      <point x="370" y="542" type="line" smooth="yes"/>
      <point x="369" y="548"/>
      <point x="367" y="570"/>
      <point x="367" y="570" type="curve"/>
      <point x="367" y="570"/>
      <point x="359" y="550"/>
      <point x="356" y="544" type="curve" smooth="yes"/>
      <point x="246" y="326" type="line"/>
    </contour>
  </outline>
</glyph>
<glyph name="B" format="1">
  <advance width="526"/>
  <unicode hex="0042"/>
  <outline>
    <contour>
      <point x="485" y="573" type="curve" smooth="yes"/>
      <point x="485" y="471"/>
      <point x="422" y="396"/>
      <point x="364" y="370" type="curve"/>
      <point x="421" y="356"/>
      <point x="464" y="298"/>
      <point x="464" y="228" type="curve" smooth="yes"/>
      <point x="464" y="113"/>
      <point x="362" y="0"/>
      <point x="201" y="0" type="curve" smooth="yes"/>
      <point x="2" y="0" type="line"/>
      <point x="131" y="730" type="line"/>
      <point x="304" y="730" type="line" smooth="yes"/>
      <point x="428" y="730"/>
      <point x="485" y="660"/>
    </contour>
    <contour>
      <point x="383" y="549" type="curve" smooth="yes"/>
      <point x="383" y="613"/>
      <point x="345" y="640"/>
      <point x="270" y="640" type="curve" smooth="yes"/>
      <point x="210" y="640" type="line"/>
      <point x="169" y="402" type="line"/>
      <point x="220" y="402" type="line" smooth="yes"/>
      <point x="329" y="402"/>
      <point x="383" y="474"/>
    </contour>
    <contour>
      <point x="364" y="223" type="curve" smooth="yes"/>
      <point x="364" y="279"/>
      <point x="326" y="314"/>
      <point x="255" y="314" type="curve" smooth="yes"/>
      <point x="153" y="314" type="line"/>
      <point x="115" y="90" type="line"/>
      <point x="207" y="90" type="line" smooth="yes"/>
      <point x="301" y="90"/>
      <point x="364" y="143"/>
    </contour>
  </outline>
</glyph>
<glyph name="C" format="1">
  <advance width="691"/>
  <unicode hex="0043"/>
  <outline>
    <contour>
      <point x="690" y="638" type="curve"/>
      <point x="608" y="576" type="line"/>
      <point x="574" y="617"/>
      <point x="531" y="648"/>
      <point x="439" y="648" type="curve" smooth="yes"/>
      <point x="258" y="648"/>
      <point x="137" y="465"/>
      <point x="137" y="310" type="curve" smooth="yes"/>
      <point x="137" y="180"/>
      <point x="208" y="82"/>
      <point x="350" y="82" type="curve" smooth="yes"/>
      <point x="420" y="82"/>
      <point x="485" y="110"/>
      <point x="551" y="180" type="curve"/>
      <point x="614" y="116" type="line"/>
      <point x="545" y="42"/>
      <point x="443" y="-12"/>
      <point x="331" y="-12" type="curve" smooth="yes"/>
      <point x="148" y="-12"/>
      <point x="36" y="118"/>
      <point x="36" y="291" type="curve" smooth="yes"/>
      <point x="36" y="567"/>
      <point x="255" y="742"/>
      <point x="464" y="742" type="curve" smooth="yes"/>
      <point x="590" y="742"/>
      <point x="643" y="692"/>
    </contour>
  </outline>
</glyph>
<glyph name="D" format="1">
  <advance width="664"/>
  <unicode hex="0044"/>
  <outline>
    <contour>
      <point x="629" y="448" type="curve" smooth="yes"/>
      <point x="629" y="178"/>
      <point x="432" y="0"/>
      <point x="189" y="0" type="curve" smooth="yes"/>
      <point x="2" y="0" type="line"/>
      <point x="131" y="730" type="line"/>
      <point x="313" y="730" type="line" smooth="yes"/>
      <point x="496" y="730"/>
      <point x="629" y="640"/>
    </contour>
    <contour>
      <point x="529" y="425" type="curve" smooth="yes"/>
      <point x="529" y="574"/>
      <point x="455" y="644"/>
      <point x="299" y="644" type="curve" smooth="yes"/>
      <point x="214" y="644" type="line"/>
      <point x="115" y="86" type="line"/>
      <point x="193" y="86" type="line" smooth="yes"/>
      <point x="404" y="86"/>
      <point x="529" y="250"/>
    </contour>
  </outline>
</glyph>
<glyph name="E" format="1">
  <advance width="521"/>
  <unicode hex="0045"/>
  <outline>
    <contour>
      <point x="519" y="730" type="line"/>
      <point x="503" y="640" type="line"/>
      <point x="211" y="640" type="line"/>
      <point x="169" y="403" type="line"/>
      <point x="454" y="403" type="line"/>
      <point x="438" y="313" type="line"/>
      <point x="153" y="313" type="line"/>
      <point x="114" y="90" type="line"/>
      <point x="425" y="90" type="line"/>
      <point x="409" y="0" type="line"/>
      <point x="2" y="0" type="line"/>
      <point x="131" y="730" type="line"/>
    </contour>
  </outline>
</glyph>
<glyph name="F" format="1">
  <advance width="452"/>
  <unicode hex="0046"/>
  <outline>
    <contour>
      <point x="471" y="730" type="line"/>
      <point x="455" y="640" type="line"/>
      <point x="211" y="640" type="line"/>
      <point x="169" y="403" type="line"/>
      <point x="398" y="403" type="line"/>
      <point x="382" y="313" type="line"/>
      <point x="153" y="313" type="line"/>
      <point x="98" y="0" type="line"/>
      <point x="2" y="0" type="line"/>
      <point x="131" y="730" type="line"/>
    </contour>
  </outline>
</glyph>
<glyph name="G" format="1">
  <advance width="762"/>
  <unicode hex="0047"/>
  <outline>
    <contour>
      <point x="728" y="327" type="line"/>
      <point x="693" y="129"/>
      <point x="529" y="-12"/>
      <point x="341" y="-12" type="curve" smooth="yes"/>
      <point x="158" y="-12"/>
      <point x="36" y="109"/>
      <point x="36" y="289" type="curve" smooth="yes"/>
      <point x="36" y="577"/>
      <point x="263" y="742"/>
      <point x="474" y="742" type="curve" smooth="yes"/>
      <point x="578" y="742"/>
      <point x="650" y="704"/>
      <point x="709" y="643" type="curve"/>
      <point x="637" y="571" type="line"/>
      <point x="588" y="625"/>
      <point x="534" y="648"/>
      <point x="449" y="648" type="curve" smooth="yes"/>
      <point x="258" y="648"/>
      <point x="137" y="470"/>
      <point x="137" y="315" type="curve" smooth="yes"/>
      <point x="137" y="173"/>
      <point x="213" y="82"/>
      <point x="360" y="82" type="curve" smooth="yes"/>
      <point x="465" y="82"/>
      <point x="559" y="149"/>
      <point x="600" y="237" type="curve"/>
      <point x="376" y="237" type="line"/>
      <point x="392" y="327" type="line"/>
    </contour>
  </outline>
</glyph>
<glyph name="H" format="1">
  <advance width="639"/>
  <unicode hex="0048"/>
  <outline>
    <contour>
      <point x="637" y="730" type="line"/>
      <point x="508" y="0" type="line"/>
      <point x="412" y="0" type="line"/>
      <point x="467" y="318" type="line"/>
      <point x="153" y="318" type="line"/>
      <point x="98" y="0" type="line"/>
      <point x="2" y="0" type="line"/>
      <point x="131" y="730" type="line"/>
      <point x="227" y="730" type="line"/>
      <point x="170" y="408" type="line"/>
      <point x="484" y="408" type="line"/>
      <point x="541" y="730" type="line"/>
    </contour>
  </outline>
</glyph>
<glyph name="I" format="1">
  <advance width="229"/>
  <unicode hex="0049"/>
  <outline>
    <contour>
      <point x="227" y="730" type="line"/>
      <point x="98" y="0" type="line"/>
      <point x="2" y="0" type="line"/>
      <point x="131" y="730" type="line"/>
    </contour>
  </outline>
</glyph>
<glyph name="J" format="1">
  <advance width="351"/>
  <unicode hex="004A"/>
  <outline>
    <contour>
      <point x="349" y="730" type="line"/>
      <point x="258" y="215" type="line" smooth="yes"/>
      <point x="237" y="96"/>
      <point x="175" y="-12"/>
      <point x="38" y="-12" type="curve" smooth="yes"/>
      <point x="13" y="-12"/>
      <point x="-6" y="-12"/>
      <point x="-36" y="-3" type="curve"/>
      <point x="-21" y="83" type="line"/>
      <point x="0" y="78"/>
      <point x="26" y="78"/>
      <point x="46" y="78" type="curve" smooth="yes"/>
      <point x="111" y="78"/>
      <point x="147" y="132"/>
      <point x="163" y="222" type="curve" smooth="yes"/>
      <point x="253" y="730" type="line"/>
    </contour>
  </outline>
</glyph>
<glyph name="K" format="1">
  <advance width="599"/>
  <unicode hex="004B"/>
  <outline>
    <contour>
      <point x="612" y="730" type="line"/>
      <point x="273" y="412" type="line"/>
      <point x="530" y="0" type="line"/>
      <point x="423" y="0" type="line"/>
      <point x="206" y="350" type="line"/>
      <point x="151" y="297" type="line"/>
      <point x="98" y="0" type="line"/>
      <point x="2" y="0" type="line"/>
      <point x="131" y="730" type="line"/>
      <point x="227" y="730" type="line"/>
      <point x="174" y="428" type="line"/>
      <point x="488" y="730" type="line"/>
    </contour>
  </outline>
</glyph>
<glyph name="L" format="1">
  <advance width="447"/>
  <unicode hex="004C"/>
  <outline>
    <contour>
      <point x="375" y="90" type="line"/>
      <point x="359" y="0" type="line"/>
      <point x="2" y="0" type="line"/>
      <point x="131" y="730" type="line"/>
      <point x="227" y="730" type="line"/>
      <point x="114" y="90" type="line"/>
    </contour>
  </outline>
</glyph>
<glyph name="M" format="1">
  <advance width="829"/>
  <unicode hex="004D"/>
  <outline>
    <contour>
      <point x="827" y="730" type="line"/>
      <point x="698" y="0" type="line"/>
      <point x="602" y="0" type="line"/>
      <point x="698" y="541" type="line" smooth="yes"/>
      <point x="701" y="557"/>
      <point x="707" y="579"/>
      <point x="707" y="579" type="curve"/>
      <point x="707" y="579"/>
      <point x="694" y="562"/>
      <point x="685" y="551" type="curve" smooth="yes"/>
      <point x="413" y="239" type="line"/>
      <point x="373" y="239" type="line"/>
      <point x="208" y="545" type="line" smooth="yes"/>
      <point x="203" y="555"/>
      <point x="197" y="570"/>
      <point x="197" y="570" type="curve"/>
      <point x="197" y="570"/>
      <point x="196" y="553"/>
      <point x="194" y="544" type="curve" smooth="yes"/>
      <point x="98" y="0" type="line"/>
      <point x="2" y="0" type="line"/>
      <point x="131" y="730" type="line"/>
      <point x="215" y="730" type="line"/>
      <point x="412" y="363" type="line"/>
      <point x="733" y="730" type="line"/>
    </contour>
  </outline>
</glyph>
<glyph name="N" format="1">
  <advance width="687"/>
  <unicode hex="004E"/>
  <outline>
    <contour>
      <point x="685" y="730" type="line"/>
      <point x="556" y="0" type="line"/>
      <point x="476" y="0" type="line"/>
      <point x="211" y="526" type="line" smooth="yes"/>
      <point x="204" y="539"/>
      <point x="195" y="559"/>
      <point x="195" y="559" type="curve"/>
      <point x="195" y="559"/>
      <point x="192" y="536"/>
      <point x="190" y="522" type="curve" smooth="yes"/>
      <point x="98" y="0" type="line"/>
      <point x="2" y="0" type="line"/>
      <point x="131" y="730" type="line"/>
      <point x="216" y="730" type="line"/>
      <point x="478" y="215" type="line" smooth="yes"/>
      <point x="484" y="203"/>
      <point x="494" y="181"/>
      <point x="494" y="181" type="curve"/>
      <point x="494" y="181"/>
      <point x="496" y="202"/>
      <point x="499" y="218" type="curve" smooth="yes"/>
      <point x="589" y="730" type="line"/>
    </contour>
  </outline>
</glyph>
<glyph name="O" format="1">
  <advance width="806"/>
  <unicode hex="004F"/>
  <outline>
    <contour>
      <point x="770" y="444" type="curve" smooth="yes"/>
      <point x="770" y="172"/>
      <point x="547" y="-12"/>
      <point x="341" y="-12" type="curve" smooth="yes"/>
      <point x="158" y="-12"/>
      <point x="36" y="109"/>
      <point x="36" y="289" type="curve" smooth="yes"/>
      <point x="36" y="577"/>
      <point x="263" y="742"/>
      <point x="474" y="742" type="curve" smooth="yes"/>
      <point x="667" y="742"/>
      <point x="770" y="608"/>
    </contour>
    <contour>
      <point x="670" y="425" type="curve" smooth="yes"/>
      <point x="670" y="554"/>
      <point x="605" y="648"/>
      <point x="449" y="648" type="curve" smooth="yes"/>
      <point x="258" y="648"/>
      <point x="137" y="470"/>
      <point x="137" y="315" type="curve" smooth="yes"/>
      <point x="137" y="173"/>
      <point x="213" y="82"/>
      <point x="360" y="82" type="curve" smooth="yes"/>
      <point x="529" y="82"/>
      <point x="670" y="250"/>
    </contour>
  </outline>
</glyph>
<glyph name="P" format="1">
  <advance width="531"/>
  <unicode hex="0050"/>
  <outline>
    <contour>
      <point x="533" y="551" type="curve" smooth="yes"/>
      <point x="533" y="397"/>
      <point x="401" y="287"/>
      <point x="251" y="287" type="curve" smooth="yes"/>
      <point x="149" y="287" type="line"/>
      <point x="98" y="0" type="line"/>
      <point x="2" y="0" type="line"/>
      <point x="131" y="730" type="line"/>
      <point x="330" y="730" type="line" smooth="yes"/>
      <point x="478" y="730"/>
      <point x="533" y="636"/>
    </contour>
    <contour>
      <point x="433" y="536" type="curve" smooth="yes"/>
      <point x="433" y="598"/>
      <point x="391" y="640"/>
      <point x="298" y="640" type="curve" smooth="yes"/>
      <point x="211" y="640" type="line"/>
      <point x="165" y="377" type="line"/>
      <point x="259" y="377" type="line" smooth="yes"/>
      <point x="353" y="377"/>
      <point x="433" y="436"/>
    </contour>
  </outline>
</glyph>
<glyph name="Q" format="1">
  <advance width="806"/>
  <unicode hex="0051"/>
  <outline>
    <contour>
      <point x="770" y="444" type="curve" smooth="yes"/>
      <point x="770" y="300"/>
      <point x="708" y="181"/>
      <point x="618" y="100" type="curve"/>
      <point x="643" y="83"/>
      <point x="672" y="72"/>
      <point x="703" y="70" type="curve"/>
      <point x="621" y="-11" type="line"/>
      <point x="587" y="-1"/>
      <point x="557" y="17"/>
      <point x="533" y="40" type="curve"/>
      <point x="472" y="6"/>
      <point x="406" y="-12"/>
      <point x="341" y="-12" type="curve" smooth="yes"/>
      <point x="158" y="-12"/>
      <point x="36" y="109"/>
      <point x="36" y="289" type="curve" smooth="yes"/>
      <point x="36" y="577"/>
      <point x="263" y="742"/>
      <point x="474" y="742" type="curve" smooth="yes"/>
      <point x="667" y="742"/>
      <point x="770" y="608"/>
    </contour>
    <contour>
      <point x="670" y="425" type="curve" smooth="yes"/>
      <point x="670" y="554"/>
      <point x="605" y="648"/>
      <point x="449" y="648" type="curve" smooth="yes"/>
      <point x="258" y="648"/>
      <point x="137" y="470"/>
      <point x="137" y="315" type="curve" smooth="yes"/>
      <point x="137" y="173"/>
      <point x="213" y="82"/>
      <point x="360" y="82" type="curve" smooth="yes"/>
      <point x="401" y="82"/>
      <point x="440" y="92"/>
      <point x="476" y="109" type="curve"/>
      <point x="462" y="132"/>
      <point x="452" y="154"/>
      <point x="446" y="171" type="curve"/>
      <point x="521" y="228" type="line"/>
      <point x="528" y="208"/>
      <point x="540" y="185"/>
      <point x="555" y="164" type="curve"/>
      <point x="625" y="229"/>
      <point x="670" y="326"/>
    </contour>
  </outline>
</glyph>
<glyph name="R" format="1">
  <advance width="573"/>
  <unicode hex="0052"/>
  <outline>
    <contour>
      <point x="538" y="553" type="curve" smooth="yes"/>
      <point x="538" y="387"/>
      <point x="405" y="307"/>
      <point x="287" y="307" type="curve"/>
      <point x="491" y="0" type="line"/>
      <point x="377" y="0" type="line"/>
      <point x="158" y="337" type="line"/>
      <point x="98" y="0" type="line"/>
      <point x="2" y="0" type="line"/>
      <point x="131" y="730" type="line"/>
      <point x="337" y="730" type="line" smooth="yes"/>
      <point x="472" y="730"/>
      <point x="538" y="639"/>
    </contour>
    <contour>
      <point x="437" y="534" type="curve" smooth="yes"/>
      <point x="437" y="587"/>
      <point x="406" y="640"/>
      <point x="312" y="640" type="curve" smooth="yes"/>
      <point x="210" y="640" type="line"/>
      <point x="166" y="381" type="line"/>
      <point x="266" y="381" type="line" smooth="yes"/>
      <point x="366" y="381"/>
      <point x="437" y="441"/>
    </contour>
  </outline>
</glyph>
<glyph name="S" format="1">
  <advance width="506"/>
  <unicode hex="0053"/>
  <outline>
    <contour>
      <point x="483" y="686" type="curve"/>
      <point x="423" y="605" type="line"/>
      <point x="385" y="637"/>
      <point x="358" y="650"/>
      <point x="313" y="650" type="curve" smooth="yes"/>
      <point x="225" y="650"/>
      <point x="184" y="599"/>
      <point x="184" y="539" type="curve" smooth="yes"/>
      <point x="184" y="486"/>
      <point x="235" y="451"/>
      <point x="290" y="413" type="curve" smooth="yes"/>
      <point x="356" y="367"/>
      <point x="428" y="314"/>
      <point x="428" y="216" type="curve" smooth="yes"/>
      <point x="428" y="85"/>
      <point x="316" y="-12"/>
      <point x="177" y="-12" type="curve" smooth="yes"/>
      <point x="103" y="-12"/>
      <point x="48" y="9"/>
      <point x="-5" y="55" type="curve"/>
      <point x="58" y="131" type="line"/>
      <point x="93" y="98"/>
      <point x="135" y="79"/>
      <point x="183" y="79" type="curve" smooth="yes"/>
      <point x="271" y="79"/>
      <point x="326" y="126"/>
      <point x="326" y="195" type="curve" smooth="yes"/>
      <point x="326" y="268"/>
      <point x="260" y="308"/>
      <point x="197" y="353" type="curve" smooth="yes"/>
      <point x="138" y="395"/>
      <point x="81" y="443"/>
      <point x="81" y="527" type="curve" smooth="yes"/>
      <point x="81" y="647"/>
      <point x="180" y="742"/>
      <point x="325" y="742" type="curve" smooth="yes"/>
      <point x="394" y="742"/>
      <point x="436" y="724"/>
    </contour>
  </outline>
</glyph>
<glyph name="T" format="1">
  <advance width="458"/>
  <unicode hex="0054"/>
  <outline>
    <contour>
      <point x="493" y="730" type="line"/>
      <point x="477" y="640" type="line"/>
      <point x="320" y="640" type="line"/>
      <point x="207" y="0" type="line"/>
      <point x="111" y="0" type="line"/>
      <point x="224" y="640" type="line"/>
      <point x="73" y="640" type="line"/>
      <point x="89" y="730" type="line"/>
    </contour>
  </outline>
</glyph>
<glyph name="U" format="1">
  <advance width="679"/>
  <unicode hex="0055"/>
  <outline>
    <contour>
      <point x="678" y="730" type="line"/>
      <point x="602" y="296" type="line" smooth="yes"/>
      <point x="569" y="110"/>
      <point x="447" y="-12"/>
      <point x="281" y="-12" type="curve" smooth="yes"/>
      <point x="113" y="-12"/>
      <point x="19" y="116"/>
      <point x="51" y="296" type="curve" smooth="yes"/>
      <point x="127" y="730" type="line"/>
      <point x="224" y="730" type="line"/>
      <point x="148" y="296" type="line" smooth="yes"/>
      <point x="122" y="148"/>
      <point x="195" y="78"/>
      <point x="297" y="78" type="curve" smooth="yes"/>
      <point x="392" y="78"/>
      <point x="482" y="154"/>
      <point x="507" y="296" type="curve" smooth="yes"/>
      <point x="583" y="730" type="line"/>
    </contour>
  </outline>
</glyph>
<glyph name="V" format="1">
  <advance width="593"/>
  <unicode hex="0056"/>
  <outline>
    <contour>
      <point x="639" y="730" type="line"/>
      <point x="264" y="0" type="line"/>
      <point x="202" y="0" type="line"/>
      <point x="84" y="730" type="line"/>
      <point x="177" y="730" type="line"/>
      <point x="259" y="206" type="line" smooth="yes"/>
      <point x="261" y="193"/>
      <point x="263" y="167"/>
      <point x="263" y="167" type="curve"/>
      <point x="263" y="167"/>
      <point x="273" y="190"/>
      <point x="281" y="205" type="curve" smooth="yes"/>
      <point x="548" y="730" type="line"/>
    </contour>
  </outline>
</glyph>
<glyph name="W" format="1">
  <advance width="853"/>
  <unicode hex="0057"/>
  <outline>
    <contour>
      <point x="891" y="730" type="line"/>
      <point x="568" y="0" type="line"/>
      <point x="503" y="0" type="line"/>
      <point x="450" y="491" type="line" smooth="yes"/>
      <point x="448" y="510"/>
      <point x="447" y="533"/>
      <point x="447" y="533" type="curve"/>
      <point x="447" y="533"/>
      <point x="439" y="512"/>
      <point x="431" y="495" type="curve" smooth="yes"/>
      <point x="201" y="0" type="line"/>
      <point x="137" y="0" type="line"/>
      <point x="84" y="730" type="line"/>
      <point x="178" y="730" type="line"/>
      <point x="212" y="247" type="line" smooth="yes"/>
      <point x="213" y="232"/>
      <point x="213" y="209"/>
      <point x="213" y="209" type="curve"/>
      <point x="213" y="209"/>
      <point x="221" y="229"/>
      <point x="228" y="244" type="curve" smooth="yes"/>
      <point x="456" y="730" type="line"/>
      <point x="518" y="730" type="line"/>
      <point x="568" y="255" type="line" smooth="yes"/>
      <point x="570" y="238"/>
      <point x="571" y="213"/>
      <point x="571" y="213" type="curve"/>
      <point x="571" y="213"/>
      <point x="579" y="236"/>
      <point x="587" y="253" type="curve" smooth="yes"/>
      <point x="798" y="730" type="line"/>
    </contour>
  </outline>
</glyph>
<glyph name="X" format="1">
  <advance width="656"/>
  <unicode hex="0058"/>
  <outline>
    <contour>
      <point x="661" y="730" type="line"/>
      <point x="384" y="386" type="line"/>
      <point x="563" y="0" type="line"/>
      <point x="450" y="0" type="line"/>
      <point x="329" y="264" type="line" smooth="yes"/>
      <point x="323" y="278"/>
      <point x="312" y="303"/>
      <point x="312" y="303" type="curve"/>
      <point x="312" y="303"/>
      <point x="298" y="283"/>
      <point x="287" y="269" type="curve" smooth="yes"/>
      <point x="74" y="0" type="line"/>
      <point x="-43" y="0" type="line"/>
      <point x="273" y="391" type="line"/>
      <point x="115" y="730" type="line"/>
      <point x="230" y="730" type="line"/>
      <point x="329" y="514" type="line" smooth="yes"/>
      <point x="335" y="501"/>
      <point x="345" y="475"/>
      <point x="345" y="475" type="curve"/>
      <point x="345" y="475"/>
      <point x="358" y="495"/>
      <point x="372" y="512" type="curve" smooth="yes"/>
      <point x="545" y="730" type="line"/>
    </contour>
  </outline>
</glyph>
<glyph name="Y" format="1">
  <advance width="593"/>
  <unicode hex="0059"/>
  <outline>
    <contour>
      <point x="652" y="730" type="line"/>
      <point x="337" y="339" type="line"/>
      <point x="277" y="0" type="line"/>
      <point x="181" y="0" type="line"/>
      <point x="241" y="339" type="line"/>
      <point x="67" y="730" type="line"/>
      <point x="174" y="730" type="line"/>
      <point x="291" y="460" type="line" smooth="yes"/>
      <point x="296" y="449"/>
      <point x="303" y="430"/>
      <point x="303" y="430" type="curve"/>
      <point x="303" y="430"/>
      <point x="314" y="447"/>
      <point x="323" y="458" type="curve" smooth="yes"/>
      <point x="538" y="730" type="line"/>
    </contour>
  </outline>
</glyph>
<glyph name="Z" format="1">
  <advance width="606"/>
  <unicode hex="005A"/>
  <outline>
    <contour>
      <point x="622" y="730" type="line"/>
      <point x="148" y="106" type="line" smooth="yes"/>
      <point x="141" y="97"/>
      <point x="131" y="87"/>
      <point x="131" y="87" type="curve"/>
      <point x="131" y="87"/>
      <point x="143" y="88"/>
      <point x="155" y="88" type="curve" smooth="yes"/>
      <point x="504" y="88" type="line"/>
      <point x="489" y="0" type="line"/>
      <point x="-43" y="0" type="line"/>
      <point x="430" y="626" type="line" smooth="yes"/>
      <point x="437" y="635"/>
      <point x="444" y="642"/>
      <point x="444" y="642" type="curve"/>
      <point x="444" y="642"/>
      <point x="430" y="641"/>
      <point x="413" y="641" type="curve" smooth="yes"/>
      <point x="125" y="641" type="line"/>
      <point x="141" y="730" type="line"/>
    </contour>
  </outline>
</glyph>
<glyph name="bracketleft" format="1">
  <advance width="315"/>
  <unicode hex="005B"/>
  <outline>
    <contour>
      <point x="337" y="730" type="line"/>
      <point x="322" y="640" type="line"/>
      <point x="218" y="640" type="line"/>
      <point x="89" y="-89" type="line"/>
      <point x="193" y="-89" type="line"/>
      <point x="177" y="-179" type="line"/>
      <point x="-23" y="-179" type="line"/>
      <point x="137" y="730" type="line"/>
    </contour>
  </outline>
</glyph>
<glyph name="backslash" format="1">
  <advance width="359"/>
  <unicode hex="005C"/>
  <outline>
    <contour>
      <point x="290" y="0" type="line"/>
      <point x="202" y="0" type="line"/>
      <point x="67" y="730" type="line"/>
      <point x="155" y="730" type="line"/>
    </contour>
  </outline>
</glyph>
<glyph name="bracketright" format="1">
  <advance width="315"/>
  <unicode hex="005D"/>
  <outline>
    <contour>
      <point x="298" y="730" type="line"/>
      <point x="138" y="-179" type="line"/>
      <point x="-62" y="-179" type="line"/>
      <point x="-47" y="-89" type="line"/>
      <point x="57" y="-89" type="line"/>
      <point x="186" y="640" type="line"/>
      <point x="82" y="640" type="line"/>
      <point x="98" y="730" type="line"/>
    </contour>
  </outline>
</glyph>
<glyph name="asciicircum" format="1">
  <advance width="483"/>
  <unicode hex="005E"/>
  <outline>
    <contour>
      <point x="454" y="369" type="line"/>
      <point x="347" y="369" type="line"/>
      <point x="288" y="635" type="line"/>
      <point x="136" y="369" type="line"/>
      <point x="31" y="369" type="line"/>
      <point x="258" y="730" type="line"/>
      <point x="353" y="730" type="line"/>
    </contour>
  </outline>
</glyph>
<glyph name="underscore" format="1">
  <advance width="500"/>
  <unicode hex="005F"/>
  <outline>
    <contour>
      <point x="431" y="-129" type="line"/>
      <point x="-69" y="-129" type="line"/>
      <point x="-69" y="-63" type="line"/>
      <point x="431" y="-63" type="line"/>
    </contour>
  </outline>
</glyph>
<glyph name="grave" format="1">
  <advance width="500"/>
  <unicode hex="0060"/>
  <outline>
    <contour>
      <point x="344" y="490" type="line"/>
      <point x="255" y="490" type="line"/>
      <point x="188" y="637" type="line"/>
      <point x="277" y="637" type="line"/>
    </contour>
  </outline>
</glyph>
<glyph name="a" format="1">
  <advance width="441"/>
  <unicode hex="0061"/>
  <outline>
    <contour>
      <point x="380" y="276" type="curve" smooth="yes"/>
      <point x="331" y="0" type="line"/>
      <point x="240" y="0" type="line"/>
      <point x="248" y="47" type="line"/>
      <point x="212" y="12"/>
      <point x="164" y="-12"/>
      <point x="114" y="-12" type="curve" smooth="yes"/>
      <point x="35" y="-12"/>
      <point x="-10" y="33"/>
      <point x="-10" y="102" type="curve" smooth="yes"/>
      <point x="-10" y="221"/>
      <point x="108" y="280"/>
      <point x="216" y="280" type="curve" smooth="yes"/>
      <point x="290" y="280" type="line"/>
      <point x="299" y="330"/>
      <point x="287" y="351"/>
      <point x="226" y="351" type="curve" smooth="yes"/>
      <point x="174" y="351"/>
      <point x="133" y="344"/>
      <point x="94" y="328" type="curve"/>
      <point x="74" y="396" type="line"/>
      <point x="117" y="419"/>
      <point x="183" y="428"/>
      <point x="229" y="428" type="curve" smooth="yes"/>
      <point x="349" y="428"/>
      <point x="399" y="385"/>
    </contour>
    <contour>
      <point x="276" y="206" type="line"/>
      <point x="206" y="206" type="line" smooth="yes"/>
      <point x="151" y="206"/>
      <point x="83" y="173"/>
      <point x="83" y="118" type="curve" smooth="yes"/>
      <point x="83" y="78"/>
      <point x="109" y="66"/>
      <point x="136" y="66" type="curve" smooth="yes"/>
      <point x="182" y="66"/>
      <point x="240" y="108"/>
      <point x="264" y="140" type="curve"/>
    </contour>
  </outline>
</glyph>
<glyph name="c" format="1">
  <advance width="400"/>
  <unicode hex="0063"/>
  <outline>
    <contour>
      <point x="363" y="385" type="curve"/>
      <point x="307" y="316" type="line"/>
      <point x="284" y="336"/>
      <point x="261" y="345"/>
      <point x="220" y="345" type="curve" smooth="yes"/>
      <point x="150" y="345"/>
      <point x="91" y="264"/>
      <point x="91" y="177" type="curve" smooth="yes"/>
      <point x="91" y="117"/>
      <point x="120" y="72"/>
      <point x="177" y="72" type="curve" smooth="yes"/>
      <point x="217" y="72"/>
      <point x="253" y="92"/>
      <point x="282" y="123" type="curve"/>
      <point x="335" y="63" type="line"/>
      <point x="295" y="22"/>
      <point x="241" y="-12"/>
      <point x="163" y="-12" type="curve" smooth="yes"/>
      <point x="67" y="-12"/>
      <point x="-2" y="67"/>
      <point x="-2" y="165" type="curve" smooth="yes"/>
      <point x="-2" y="292"/>
      <point x="92" y="428"/>
      <point x="232" y="428" type="curve" smooth="yes"/>
      <point x="297" y="428"/>
      <point x="340" y="409"/>
    </contour>
  </outline>
</glyph>
<glyph name="e" format="1">
  <advance width="438"/>
  <unicode hex="0065"/>
  <outline>
    <contour>
      <point x="380" y="273" type="curve" smooth="yes"/>
      <point x="380" y="247"/>
      <point x="378" y="216"/>
      <point x="371" y="195" type="curve"/>
      <point x="85" y="195" type="line"/>
      <point x="85" y="191"/>
      <point x="85" y="186"/>
      <point x="85" y="182" type="curve" smooth="yes"/>
      <point x="85" y="108"/>
      <point x="122" y="68"/>
      <point x="179" y="68" type="curve" smooth="yes"/>
      <point x="231" y="68"/>
      <point x="283" y="93"/>
      <point x="313" y="122" type="curve"/>
      <point x="360" y="65" type="line"/>
      <point x="319" y="24"/>
      <point x="258" y="-12"/>
      <point x="175" y="-12" type="curve" smooth="yes"/>
      <point x="73" y="-12"/>
      <point x="-2" y="48"/>
      <point x="-2" y="175" type="curve" smooth="yes"/>
      <point x="-2" y="297"/>
      <point x="83" y="428"/>
      <point x="222" y="428" type="curve" smooth="yes"/>
      <point x="308" y="428"/>
      <point x="380" y="361"/>
    </contour>
    <contour>
      <point x="295" y="259" type="line"/>
      <point x="298" y="298"/>
      <point x="283" y="351"/>
      <point x="217" y="351" type="curve" smooth="yes"/>
      <point x="162" y="351"/>
      <point x="120" y="311"/>
      <point x="100" y="259" type="curve"/>
    </contour>
  </outline>
</glyph>
<glyph name="f" format="1">
  <advance width="251"/>
  <unicode hex="0066"/>
  <outline>
    <contour>
      <point x="305" y="723" type="curve"/>
      <point x="287" y="646" type="line"/>
      <point x="277" y="649"/>
      <point x="266" y="652"/>
      <point x="248" y="652" type="curve" smooth="yes"/>
      <point x="217" y="652"/>
      <point x="201" y="623"/>
      <point x="188" y="551" type="curve" smooth="yes"/>
      <point x="164" y="416" type="line"/>
      <point x="243" y="416" type="line"/>
      <point x="229" y="332" type="line"/>
      <point x="150" y="332" type="line"/>
      <point x="60" y="-179" type="line"/>
      <point x="-31" y="-179" type="line"/>
      <point x="59" y="332" type="line"/>
      <point x="9" y="332" type="line"/>
      <point x="23" y="416" type="line"/>
      <point x="73" y="416" type="line"/>
      <point x="103" y="586" type="line" smooth="yes"/>
      <point x="122" y="692"/>
      <point x="178" y="733"/>
      <point x="236" y="733" type="curve" smooth="yes"/>
      <point x="268" y="733"/>
      <point x="288" y="731"/>
    </contour>
  </outline>
</glyph>
<glyph name="h" format="1">
  <advance width="464"/>
  <unicode hex="0068"/>
  <outline>
    <contour>
      <point x="400" y="259" type="curve" smooth="yes"/>
      <point x="354" y="0" type="line"/>
      <point x="262" y="0" type="line"/>
      <point x="308" y="253" type="line" smooth="yes"/>
      <point x="319" y="316"/>
      <point x="291" y="345"/>
      <point x="250" y="345" type="curve" smooth="yes"/>
      <point x="191" y="345"/>
      <point x="129" y="278"/>
      <point x="115" y="202" type="curve" smooth="yes"/>
      <point x="79" y="0" type="line"/>
      <point x="-12" y="0" type="line"/>
      <point x="116" y="730" type="line"/>
      <point x="208" y="730" type="line"/>
      <point x="143" y="355" type="line"/>
      <point x="173" y="389"/>
      <point x="219" y="428"/>
      <point x="283" y="428" type="curve" smooth="yes"/>
      <point x="363" y="428"/>
      <point x="420" y="373"/>
    </contour>
  </outline>
</glyph>
<glyph name="i" format="1">
  <advance width="194"/>
  <unicode hex="0069"/>
  <outline>
    <contour>
      <point x="188" y="626" type="line"/>
      <point x="168" y="511" type="line"/>
      <point x="77" y="511" type="line"/>
      <point x="97" y="626" type="line"/>
    </contour>
    <contour>
      <point x="151" y="416" type="line"/>
      <point x="78" y="0" type="line"/>
      <point x="-13" y="0" type="line"/>
      <point x="60" y="416" type="line"/>
    </contour>
  </outline>
</glyph>
<glyph name="j" format="1">
  <advance width="194"/>
  <unicode hex="006A"/>
  <outline>
    <contour>
      <point x="188" y="626" type="line"/>
      <point x="168" y="511" type="line"/>
      <point x="77" y="511" type="line"/>
      <point x="97" y="626" type="line"/>
    </contour>
    <contour>
      <point x="151" y="416" type="line"/>
      <point x="73" y="-32" type="line" smooth="yes"/>
      <point x="55" y="-138"/>
      <point x="-8" y="-179"/>
      <point x="-60" y="-179" type="curve" smooth="yes"/>
      <point x="-90" y="-179"/>
      <point x="-105" y="-175"/>
      <point x="-119" y="-169" type="curve"/>
      <point x="-101" y="-94" type="line"/>
      <point x="-91" y="-97"/>
      <point x="-84" y="-98"/>
      <point x="-73" y="-98" type="curve" smooth="yes"/>
      <point x="-39" y="-98"/>
      <point x="-25" y="-69"/>
      <point x="-12" y="3" type="curve" smooth="yes"/>
      <point x="60" y="416" type="line"/>
    </contour>
  </outline>
</glyph>
<glyph name="k" format="1">
  <advance width="435"/>
  <unicode hex="006B"/>
  <outline>
    <contour>
      <point x="421" y="416" type="line"/>
      <point x="225" y="245" type="line"/>
      <point x="364" y="0" type="line"/>
      <point x="255" y="0" type="line"/>
      <point x="155" y="184" type="line"/>
      <point x="102" y="139" type="line"/>
      <point x="78" y="0" type="line"/>
      <point x="-13" y="0" type="line"/>
      <point x="116" y="730" type="line"/>
      <point x="207" y="730" type="line"/>
      <point x="123" y="257" type="line"/>
      <point x="296" y="416" type="line"/>
    </contour>
  </outline>
</glyph>
<glyph name="m" format="1">
  <advance width="699"/>
  <unicode hex="006D"/>
  <outline>
    <contour>
      <point x="635" y="259" type="curve" smooth="yes"/>
      <point x="589" y="0" type="line"/>
      <point x="497" y="0" type="line"/>
      <point x="543" y="253" type="line" smooth="yes"/>
      <point x="554" y="316"/>
      <point x="536" y="345"/>
      <point x="495" y="345" type="curve" smooth="yes"/>
      <point x="442" y="345"/>
      <point x="385" y="286"/>
      <point x="370" y="202" type="curve" smooth="yes"/>
      <point x="334" y="0" type="line"/>
      <point x="242" y="0" type="line"/>
      <point x="288" y="253" type="line" smooth="yes"/>
      <point x="299" y="316"/>
      <point x="281" y="345"/>
      <point x="240" y="345" type="curve" smooth="yes"/>
      <point x="181" y="345"/>
      <point x="129" y="278"/>
      <point x="115" y="202" type="curve" smooth="yes"/>
      <point x="79" y="0" type="line"/>
      <point x="-12" y="0" type="line"/>
      <point x="61" y="416" type="line"/>
      <point x="153" y="416" type="line"/>
      <point x="143" y="355" type="line"/>
      <point x="173" y="389"/>
      <point x="209" y="428"/>
      <point x="273" y="428" type="curve" smooth="yes"/>
      <point x="327" y="428"/>
      <point x="370" y="402"/>
      <point x="381" y="344" type="curve"/>
      <point x="408" y="380"/>
      <point x="464" y="428"/>
      <point x="528" y="428" type="curve" smooth="yes"/>
      <point x="608" y="428"/>
      <point x="655" y="373"/>
    </contour>
  </outline>
</glyph>
<glyph name="n" format="1">
  <advance width="464"/>
  <unicode hex="006E"/>
  <outline>
    <contour>
      <point x="400" y="259" type="curve" smooth="yes"/>
      <point x="354" y="0" type="line"/>
      <point x="262" y="0" type="line"/>
      <point x="308" y="253" type="line" smooth="yes"/>
      <point x="319" y="316"/>
      <point x="291" y="345"/>
      <point x="250" y="345" type="curve" smooth="yes"/>
      <point x="191" y="345"/>
      <point x="129" y="278"/>
      <point x="115" y="202" type="curve" smooth="yes"/>
      <point x="79" y="0" type="line"/>
      <point x="-12" y="0" type="line"/>
      <point x="61" y="416" type="line"/>
      <point x="153" y="416" type="line"/>
      <point x="143" y="355" type="line"/>
      <point x="173" y="389"/>
      <point x="219" y="428"/>
      <point x="283" y="428" type="curve" smooth="yes"/>
      <point x="363" y="428"/>
      <point x="420" y="373"/>
    </contour>
  </outline>
</glyph>
<glyph name="o" format="1">
  <advance width="448"/>
  <unicode hex="006F"/>
  <outline>
    <contour>
      <point x="403" y="257" type="curve" smooth="yes"/>
      <point x="403" y="99"/>
      <point x="300" y="-12"/>
      <point x="167" y="-12" type="curve" smooth="yes"/>
      <point x="65" y="-12"/>
      <point x="-2" y="67"/>
      <point x="-2" y="165" type="curve" smooth="yes"/>
      <point x="-2" y="291"/>
      <point x="90" y="428"/>
      <point x="235" y="428" type="curve" smooth="yes"/>
      <point x="335" y="428"/>
      <point x="403" y="349"/>
    </contour>
    <contour>
      <point x="309" y="242" type="curve" smooth="yes"/>
      <point x="309" y="310"/>
      <point x="276" y="344"/>
      <point x="222" y="344" type="curve" smooth="yes"/>
      <point x="154" y="344"/>
      <point x="91" y="271"/>
      <point x="91" y="177" type="curve" smooth="yes"/>
      <point x="91" y="113"/>
      <point x="122" y="72"/>
      <point x="179" y="72" type="curve" smooth="yes"/>
      <point x="262" y="72"/>
      <point x="309" y="157"/>
    </contour>
  </outline>
</glyph>
<glyph name="p" format="1">
  <advance width="477"/>
  <unicode hex="0070"/>
  <outline>
    <contour>
      <point x="424" y="242" type="curve" smooth="yes"/>
      <point x="424" y="128"/>
      <point x="325" y="-12"/>
      <point x="200" y="-12" type="curve" smooth="yes"/>
      <point x="141" y="-12"/>
      <point x="104" y="16"/>
      <point x="86" y="40" type="curve"/>
      <point x="47" y="-179" type="line"/>
      <point x="-44" y="-179" type="line"/>
      <point x="61" y="416" type="line"/>
      <point x="153" y="416" type="line"/>
      <point x="143" y="355" type="line"/>
      <point x="171" y="392"/>
      <point x="214" y="428"/>
      <point x="278" y="428" type="curve" smooth="yes"/>
      <point x="356" y="428"/>
      <point x="424" y="364"/>
    </contour>
    <contour>
      <point x="331" y="241" type="curve" smooth="yes"/>
      <point x="331" y="316"/>
      <point x="298" y="345"/>
      <point x="250" y="345" type="curve" smooth="yes"/>
      <point x="191" y="345"/>
      <point x="128" y="278"/>
      <point x="115" y="202" type="curve" smooth="yes"/>
      <point x="103" y="133" type="line"/>
      <point x="116" y="100"/>
      <point x="152" y="72"/>
      <point x="200" y="72" type="curve" smooth="yes"/>
      <point x="269" y="72"/>
      <point x="331" y="148"/>
    </contour>
  </outline>
</glyph>
<glyph name="q" format="1">
  <advance width="477"/>
  <unicode hex="0071"/>
  <outline>
    <contour>
      <point x="435" y="416" type="line"/>
      <point x="331" y="-179" type="line"/>
      <point x="239" y="-179" type="line"/>
      <point x="280" y="61" type="line"/>
      <point x="252" y="24"/>
      <point x="209" y="-12"/>
      <point x="145" y="-12" type="curve" smooth="yes"/>
      <point x="67" y="-12"/>
      <point x="-1" y="52"/>
      <point x="-1" y="174" type="curve" smooth="yes"/>
      <point x="-1" y="288"/>
      <point x="98" y="428"/>
      <point x="223" y="428" type="curve" smooth="yes"/>
      <point x="282" y="428"/>
      <point x="319" y="400"/>
      <point x="337" y="376" type="curve"/>
      <point x="344" y="416" type="line"/>
    </contour>
    <contour>
      <point x="320" y="283" type="line"/>
      <point x="307" y="316"/>
      <point x="271" y="344"/>
      <point x="223" y="344" type="curve" smooth="yes"/>
      <point x="154" y="344"/>
      <point x="92" y="268"/>
      <point x="92" y="175" type="curve" smooth="yes"/>
      <point x="92" y="100"/>
      <point x="125" y="71"/>
      <point x="173" y="71" type="curve" smooth="yes"/>
      <point x="232" y="71"/>
      <point x="295" y="138"/>
      <point x="308" y="214" type="curve" smooth="yes"/>
    </contour>
  </outline>
</glyph>
<glyph name="r" format="1">
  <advance width="319"/>
  <unicode hex="0072"/>
  <outline>
    <contour>
      <point x="319" y="419" type="curve"/>
      <point x="278" y="336" type="line"/>
      <point x="268" y="340"/>
      <point x="259" y="342"/>
      <point x="242" y="342" type="curve" smooth="yes"/>
      <point x="191" y="342"/>
      <point x="129" y="278"/>
      <point x="115" y="202" type="curve" smooth="yes"/>
      <point x="79" y="0" type="line"/>
      <point x="-12" y="0" type="line"/>
      <point x="61" y="416" type="line"/>
      <point x="153" y="416" type="line"/>
      <point x="143" y="355" type="line"/>
      <point x="173" y="396"/>
      <point x="221" y="428"/>
      <point x="266" y="428" type="curve" smooth="yes"/>
      <point x="291" y="428"/>
      <point x="307" y="424"/>
    </contour>
  </outline>
</glyph>
<glyph name="s" format="1">
  <advance width="340"/>
  <unicode hex="0073"/>
  <outline>
    <contour>
      <point x="303" y="394" type="curve"/>
      <point x="255" y="324" type="line"/>
      <point x="231" y="342"/>
      <point x="196" y="352"/>
      <point x="172" y="352" type="curve" smooth="yes"/>
      <point x="143" y="352"/>
      <point x="121" y="338"/>
      <point x="121" y="310" type="curve" smooth="yes"/>
      <point x="121" y="291"/>
      <point x="153" y="271"/>
      <point x="187" y="247" type="curve" smooth="yes"/>
      <point x="228" y="217"/>
      <point x="272" y="181"/>
      <point x="272" y="130" type="curve" smooth="yes"/>
      <point x="272" y="40"/>
      <point x="190" y="-10"/>
      <point x="119" y="-10" type="curve" smooth="yes"/>
      <point x="51" y="-10"/>
      <point x="7" y="12"/>
      <point x="-23" y="38" type="curve"/>
      <point x="33" y="104" type="line"/>
      <point x="62" y="81"/>
      <point x="98" y="68"/>
      <point x="121" y="68" type="curve" smooth="yes"/>
      <point x="148" y="68"/>
      <point x="181" y="80"/>
      <point x="181" y="117" type="curve" smooth="yes"/>
      <point x="181" y="144"/>
      <point x="140" y="166"/>
      <point x="101" y="194" type="curve" smooth="yes"/>
      <point x="64" y="220"/>
      <point x="29" y="252"/>
      <point x="29" y="298" type="curve" smooth="yes"/>
      <point x="29" y="381"/>
      <point x="110" y="428"/>
      <point x="178" y="428" type="curve" smooth="yes"/>
      <point x="228" y="428"/>
      <point x="270" y="418"/>
    </contour>
  </outline>
</glyph>
<glyph name="t" format="1">
  <advance width="268"/>
  <unicode hex="0074"/>
  <outline>
    <contour>
      <point x="241" y="416" type="line"/>
      <point x="227" y="332" type="line"/>
      <point x="148" y="332" type="line"/>
      <point x="119" y="171" type="line" smooth="yes"/>
      <point x="109" y="113"/>
      <point x="123" y="83"/>
      <point x="169" y="83" type="curve" smooth="yes"/>
      <point x="174" y="83"/>
      <point x="183" y="84"/>
      <point x="183" y="84" type="curve"/>
      <point x="153" y="0" type="line"/>
      <point x="58" y="0"/>
      <point x="6" y="49"/>
      <point x="28" y="171" type="curve" smooth="yes"/>
      <point x="57" y="332" type="line"/>
      <point x="10" y="332" type="line"/>
      <point x="24" y="416" type="line"/>
      <point x="71" y="416" type="line"/>
      <point x="99" y="571" type="line"/>
      <point x="197" y="611" type="line"/>
      <point x="162" y="416" type="line"/>
    </contour>
  </outline>
</glyph>
<glyph name="u" format="1">
  <advance width="464"/>
  <unicode hex="0075"/>
  <outline>
    <contour>
      <point x="416" y="416" type="line"/>
      <point x="343" y="0" type="line"/>
      <point x="251" y="0" type="line"/>
      <point x="261" y="61" type="line"/>
      <point x="231" y="27"/>
      <point x="185" y="-12"/>
      <point x="121" y="-12" type="curve" smooth="yes"/>
      <point x="41" y="-12"/>
      <point x="-16" y="43"/>
      <point x="4" y="157" type="curve" smooth="yes"/>
      <point x="50" y="416" type="line"/>
      <point x="142" y="416" type="line"/>
      <point x="96" y="163" type="line" smooth="yes"/>
      <point x="85" y="100"/>
      <point x="113" y="71"/>
      <point x="154" y="71" type="curve" smooth="yes"/>
      <point x="213" y="71"/>
      <point x="275" y="138"/>
      <point x="289" y="214" type="curve" smooth="yes"/>
      <point x="325" y="416" type="line"/>
    </contour>
  </outline>
</glyph>
<glyph name="v" format="1">
  <advance width="389"/>
  <unicode hex="0076"/>
  <outline>
    <contour>
      <point x="385" y="416" type="line"/>
      <point x="119" y="-12" type="line"/>
      <point x="4" y="416" type="line"/>
      <point x="101" y="416" type="line"/>
      <point x="151" y="208" type="line" smooth="yes"/>
      <point x="154" y="196"/>
      <point x="155" y="181"/>
      <point x="155" y="181" type="curve"/>
      <point x="155" y="181"/>
      <point x="161" y="195"/>
      <point x="167" y="205" type="curve" smooth="yes"/>
      <point x="286" y="416" type="line"/>
    </contour>
  </outline>
</glyph>
<glyph name="w" format="1">
  <advance width="581"/>
  <unicode hex="0077"/>
  <outline>
    <contour>
      <point x="577" y="416" type="line"/>
      <point x="326" y="-12" type="line"/>
      <point x="267" y="229" type="line" smooth="yes"/>
      <point x="265" y="238"/>
      <point x="263" y="252"/>
      <point x="263" y="252" type="curve"/>
      <point x="263" y="252"/>
      <point x="256" y="238"/>
      <point x="250" y="229" type="curve" smooth="yes"/>
      <point x="104" y="-12" type="line"/>
      <point x="4" y="416" type="line"/>
      <point x="100" y="416" type="line"/>
      <point x="142" y="222" type="line" smooth="yes"/>
      <point x="144" y="211"/>
      <point x="146" y="197"/>
      <point x="146" y="197" type="curve"/>
      <point x="146" y="197"/>
      <point x="154" y="212"/>
      <point x="160" y="221" type="curve" smooth="yes"/>
      <point x="293" y="428" type="line"/>
      <point x="352" y="228" type="line" smooth="yes"/>
      <point x="355" y="217"/>
      <point x="358" y="200"/>
      <point x="358" y="200" type="curve"/>
      <point x="358" y="200"/>
      <point x="366" y="217"/>
      <point x="372" y="228" type="curve" smooth="yes"/>
      <point x="476" y="416" type="line"/>
    </contour>
  </outline>
</glyph>
<glyph name="x" format="1">
  <advance width="419"/>
  <unicode hex="0078"/>
  <outline>
    <contour>
      <point x="393" y="416" type="line"/>
      <point x="239" y="223" type="line"/>
      <point x="351" y="0" type="line"/>
      <point x="247" y="0" type="line"/>
      <point x="189" y="125" type="line" smooth="yes"/>
      <point x="184" y="135"/>
      <point x="177" y="154"/>
      <point x="177" y="154" type="curve"/>
      <point x="177" y="154"/>
      <point x="166" y="137"/>
      <point x="156" y="125" type="curve" smooth="yes"/>
      <point x="54" y="0" type="line"/>
      <point x="-52" y="0" type="line"/>
      <point x="135" y="227" type="line"/>
      <point x="41" y="416" type="line"/>
      <point x="145" y="416" type="line"/>
      <point x="189" y="323" type="line" smooth="yes"/>
      <point x="194" y="313"/>
      <point x="200" y="297"/>
      <point x="200" y="297" type="curve"/>
      <point x="200" y="297"/>
      <point x="209" y="312"/>
      <point x="219" y="325" type="curve" smooth="yes"/>
      <point x="290" y="416" type="line"/>
    </contour>
  </outline>
</glyph>
<glyph name="y" format="1">
  <advance width="392"/>
  <unicode hex="0079"/>
  <outline>
    <contour>
      <point x="389" y="416" type="line"/>
      <point x="159" y="-44" type="line" smooth="yes"/>
      <point x="131" y="-100"/>
      <point x="77" y="-179"/>
      <point x="-7" y="-179" type="curve" smooth="yes"/>
      <point x="-31" y="-179"/>
      <point x="-48" y="-178"/>
      <point x="-72" y="-170" type="curve"/>
      <point x="-58" y="-88" type="line"/>
      <point x="-46" y="-93"/>
      <point x="-31" y="-97"/>
      <point x="-18" y="-97" type="curve" smooth="yes"/>
      <point x="30" y="-97"/>
      <point x="54" y="-72"/>
      <point x="81" y="-13" type="curve"/>
      <point x="9" y="416" type="line"/>
      <point x="103" y="416" type="line"/>
      <point x="148" y="136" type="line" smooth="yes"/>
      <point x="150" y="121"/>
      <point x="152" y="100"/>
      <point x="152" y="100" type="curve"/>
      <point x="152" y="100"/>
      <point x="160" y="122"/>
      <point x="166" y="136" type="curve" smooth="yes"/>
      <point x="289" y="416" type="line"/>
    </contour>
  </outline>
</glyph>
<glyph name="z" format="1">
  <advance width="402"/>
  <unicode hex="007A"/>
  <outline>
    <contour>
      <point x="384" y="416" type="line"/>
      <point x="129" y="95" type="line" smooth="yes"/>
      <point x="123" y="87"/>
      <point x="113" y="78"/>
      <point x="113" y="78" type="curve"/>
      <point x="113" y="78"/>
      <point x="125" y="79"/>
      <point x="135" y="79" type="curve" smooth="yes"/>
      <point x="311" y="79" type="line"/>
      <point x="297" y="0" type="line"/>
      <point x="-50" y="0" type="line"/>
      <point x="206" y="324" type="line" smooth="yes"/>
      <point x="210" y="329"/>
      <point x="219" y="338"/>
      <point x="219" y="338" type="curve"/>
      <point x="219" y="338"/>
      <point x="205" y="337"/>
      <point x="195" y="337" type="curve" smooth="yes"/>
      <point x="44" y="337" type="line"/>
      <point x="57" y="416" type="line"/>
    </contour>
  </outline>
</glyph>
<glyph name="braceleft" format="1">
  <advance width="290"/>
  <unicode hex="007B"/>
  <outline>
    <contour>
      <point x="323" y="749" type="curve"/>
      <point x="310" y="679" type="line"/>
      <point x="253" y="647"/>
      <point x="229" y="582"/>
      <point x="214" y="496" type="curve" smooth="yes"/>
      <point x="199" y="411"/>
      <point x="181" y="308"/>
      <point x="108" y="285" type="curve"/>
      <point x="173" y="262"/>
      <point x="155" y="159"/>
      <point x="140" y="74" type="curve" smooth="yes"/>
      <point x="122" y="-28"/>
      <point x="124" y="-84"/>
      <point x="170" y="-119" type="curve"/>
      <point x="159" y="-179" type="line"/>
      <point x="40" y="-139"/>
      <point x="30" y="-48"/>
      <point x="54" y="88" type="curve" smooth="yes"/>
      <point x="69" y="172"/>
      <point x="82" y="247"/>
      <point x="12" y="247" type="curve"/>
      <point x="26" y="323" type="line"/>
      <point x="96" y="323"/>
      <point x="109" y="398"/>
      <point x="124" y="482" type="curve" smooth="yes"/>
      <point x="154" y="651"/>
      <point x="200" y="727"/>
    </contour>
  </outline>
</glyph>
<glyph name="braceright" format="1">
  <advance width="290"/>
  <unicode hex="007D"/>
  <outline>
    <contour>
      <point x="253" y="323" type="curve"/>
      <point x="239" y="247" type="line"/>
      <point x="169" y="247"/>
      <point x="156" y="172"/>
      <point x="141" y="88" type="curve" smooth="yes"/>
      <point x="111" y="-81"/>
      <point x="65" y="-157"/>
      <point x="-58" y="-179" type="curve"/>
      <point x="-45" y="-109" type="line"/>
      <point x="12" y="-77"/>
      <point x="36" y="-12"/>
      <point x="51" y="74" type="curve" smooth="yes"/>
      <point x="66" y="159"/>
      <point x="84" y="262"/>
      <point x="157" y="285" type="curve"/>
      <point x="92" y="308"/>
      <point x="110" y="411"/>
      <point x="125" y="496" type="curve" smooth="yes"/>
      <point x="143" y="598"/>
      <point x="141" y="654"/>
      <point x="95" y="689" type="curve"/>
      <point x="106" y="749" type="line"/>
      <point x="225" y="709"/>
      <point x="235" y="618"/>
      <point x="211" y="482" type="curve" smooth="yes"/>
      <point x="196" y="398"/>
      <point x="183" y="323"/>
    </contour>
  </outline>
</glyph>
<glyph name="asciitilde" format="1">
  <advance width="500"/>
  <unicode hex="007E"/>
  <outline>
    <contour>
      <point x="475" y="449" type="line"/>
      <point x="448" y="355"/>
      <point x="414" y="282"/>
      <point x="322" y="282" type="curve" smooth="yes"/>
      <point x="288" y="282"/>
      <point x="253" y="311"/>
      <point x="230" y="326" type="curve"/>
      <point x="210" y="342"/>
      <point x="188" y="362"/>
      <point x="166" y="362" type="curve" smooth="yes"/>
      <point x="145" y="362"/>
      <point x="131" y="324"/>
      <point x="120" y="285" type="curve"/>
      <point x="26" y="285" type="line"/>
      <point x="52" y="379"/>
      <point x="82" y="451"/>
      <point x="178" y="451" type="curve" smooth="yes"/>
      <point x="210" y="451"/>
      <point x="246" y="423"/>
      <point x="270" y="407" type="curve" smooth="yes"/>
      <point x="291" y="393"/>
      <point x="312" y="371"/>
      <point x="334" y="371" type="curve" smooth="yes"/>
      <point x="355" y="371"/>
      <point x="370" y="409"/>
      <point x="381" y="449" type="curve"/>
    </contour>
  </outline>
</glyph>
<glyph name="exclamdown" format="1">
  <advance width="213"/>
  <unicode hex="00A1"/>
  <outline>
    <contour>
      <point x="223" y="730" type="line"/>
      <point x="204" y="620" type="line"/>
      <point x="103" y="620" type="line"/>
      <point x="122" y="730" type="line"/>
    </contour>
    <contour>
      <point x="176" y="574" type="line"/>
      <point x="147" y="295" type="line"/>
      <point x="95" y="0" type="line"/>
      <point x="-6" y="0" type="line"/>
      <point x="46" y="295" type="line"/>
      <point x="115" y="574" type="line"/>
    </contour>
  </outline>
</glyph>
<glyph name="cent" format="1">
  <advance width="393"/>
  <unicode hex="00A2"/>
  <outline>
    <contour>
      <point x="363" y="385" type="curve"/>
      <point x="307" y="318" type="line"/>
      <point x="288" y="335"/>
      <point x="271" y="344"/>
      <point x="238" y="346" type="curve"/>
      <point x="189" y="72" type="line"/>
      <point x="221" y="77"/>
      <point x="247" y="95"/>
      <point x="272" y="122" type="curve"/>
      <point x="324" y="65" type="line"/>
      <point x="287" y="27"/>
      <point x="237" y="-6"/>
      <point x="174" y="-11" type="curve"/>
      <point x="162" y="-79" type="line"/>
      <point x="107" y="-79" type="line"/>
      <point x="120" y="-8" type="line"/>
      <point x="41" y="8"/>
      <point x="-2" y="79"/>
      <point x="-2" y="165" type="curve" smooth="yes"/>
      <point x="-2" y="277"/>
      <point x="76" y="404"/>
      <point x="196" y="425" type="curve"/>
      <point x="209" y="495" type="line"/>
      <point x="264" y="495" type="line"/>
      <point x="252" y="427" type="line"/>
      <point x="306" y="424"/>
      <point x="342" y="406"/>
    </contour>
    <contour>
      <point x="181" y="340" type="line"/>
      <point x="131" y="317"/>
      <point x="89" y="249"/>
      <point x="89" y="177" type="curve" smooth="yes"/>
      <point x="89" y="129"/>
      <point x="104" y="93"/>
      <point x="135" y="79" type="curve"/>
    </contour>
  </outline>
</glyph>
<glyph name="sterling" format="1">
  <advance width="574"/>
  <unicode hex="00A3"/>
  <outline>
    <contour>
      <point x="561" y="541" type="curve"/>
      <point x="460" y="541" type="line"/>
      <point x="475" y="599"/>
      <point x="454" y="654"/>
      <point x="366" y="654" type="curve" smooth="yes"/>
      <point x="275" y="654"/>
      <point x="222" y="591"/>
      <point x="222" y="515" type="curve" smooth="yes"/>
      <point x="222" y="467"/>
      <point x="249" y="424"/>
      <point x="275" y="376" type="curve"/>
      <point x="455" y="376" type="line"/>
      <point x="447" y="331" type="line"/>
      <point x="296" y="331" type="line"/>
      <point x="302" y="317"/>
      <point x="307" y="303"/>
      <point x="311" y="287" type="curve"/>
      <point x="439" y="287" type="line"/>
      <point x="431" y="241" type="line"/>
      <point x="318" y="241" type="line"/>
      <point x="318" y="237"/>
      <point x="318" y="233"/>
      <point x="318" y="229" type="curve" smooth="yes"/>
      <point x="318" y="183"/>
      <point x="306" y="142"/>
      <point x="286" y="106" type="curve"/>
      <point x="306" y="92"/>
      <point x="324" y="82"/>
      <point x="344" y="82" type="curve" smooth="yes"/>
      <point x="391" y="82"/>
      <point x="406" y="138"/>
      <point x="412" y="175" type="curve"/>
      <point x="502" y="175" type="line"/>
      <point x="495" y="99"/>
      <point x="460" y="-12"/>
      <point x="343" y="-12" type="curve" smooth="yes"/>
      <point x="297" y="-12"/>
      <point x="261" y="12"/>
      <point x="229" y="40" type="curve"/>
      <point x="188" y="7"/>
      <point x="136" y="-12"/>
      <point x="80" y="-12" type="curve" smooth="yes"/>
      <point x="22" y="-12"/>
      <point x="-21" y="13"/>
      <point x="-21" y="70" type="curve" smooth="yes"/>
      <point x="-21" y="143"/>
      <point x="49" y="176"/>
      <point x="118" y="176" type="curve" smooth="yes"/>
      <point x="157" y="176"/>
      <point x="189" y="166"/>
      <point x="215" y="152" type="curve"/>
      <point x="221" y="169"/>
      <point x="224" y="187"/>
      <point x="224" y="203" type="curve" smooth="yes"/>
      <point x="224" y="216"/>
      <point x="222" y="229"/>
      <point x="219" y="241" type="curve"/>
      <point x="44" y="241" type="line"/>
      <point x="52" y="287" type="line"/>
      <point x="203" y="287" type="line"/>
      <point x="196" y="302"/>
      <point x="189" y="316"/>
      <point x="181" y="331" type="curve"/>
      <point x="60" y="331" type="line"/>
      <point x="68" y="376" type="line"/>
      <point x="157" y="376" type="line"/>
      <point x="135" y="418"/>
      <point x="117" y="462"/>
      <point x="117" y="510" type="curve" smooth="yes"/>
      <point x="117" y="626"/>
      <point x="220" y="742"/>
      <point x="379" y="742" type="curve" smooth="yes"/>
      <point x="524" y="742"/>
      <point x="592" y="664"/>
    </contour>
    <contour>
      <point x="175" y="86" type="curve"/>
      <point x="154" y="102"/>
      <point x="133" y="113"/>
      <point x="109" y="113" type="curve" smooth="yes"/>
      <point x="75" y="113"/>
      <point x="55" y="99"/>
      <point x="55" y="77" type="curve" smooth="yes"/>
      <point x="55" y="59"/>
      <point x="68" y="49"/>
      <point x="93" y="49" type="curve" smooth="yes"/>
      <point x="125" y="49"/>
      <point x="153" y="64"/>
    </contour>
  </outline>
</glyph>
<glyph name="yen" format="1">
  <advance width="593"/>
  <unicode hex="00A5"/>
  <outline>
    <contour>
      <point x="652" y="730" type="line"/>
      <point x="337" y="339" type="line"/>
      <point x="325" y="271" type="line"/>
      <point x="445" y="271" type="line"/>
      <point x="436" y="224" type="line"/>
      <point x="317" y="224" type="line"/>
      <point x="306" y="163" type="line"/>
      <point x="426" y="163" type="line"/>
      <point x="417" y="116" type="line"/>
      <point x="298" y="116" type="line"/>
      <point x="277" y="0" type="line"/>
      <point x="181" y="0" type="line"/>
      <point x="202" y="116" type="line"/>
      <point x="81" y="116" type="line"/>
      <point x="90" y="163" type="line"/>
      <point x="210" y="163" type="line"/>
      <point x="221" y="224" type="line"/>
      <point x="100" y="224" type="line"/>
      <point x="109" y="271" type="line"/>
      <point x="229" y="271" type="line"/>
      <point x="241" y="339" type="line"/>
      <point x="67" y="730" type="line"/>
      <point x="174" y="730" type="line"/>
      <point x="303" y="433" type="line"/>
      <point x="538" y="730" type="line"/>
    </contour>
  </outline>
</glyph>
<glyph name="brokenbar" format="1">
  <advance width="243"/>
  <unicode hex="00A6"/>
  <outline>
    <contour>
      <point x="76" y="351" type="line"/>
      <point x="143" y="730" type="line"/>
      <point x="236" y="730" type="line"/>
      <point x="169" y="351" type="line"/>
    </contour>
    <contour>
      <point x="142" y="200" type="line"/>
      <point x="75" y="-179" type="line"/>
      <point x="-18" y="-179" type="line"/>
      <point x="49" y="200" type="line"/>
    </contour>
  </outline>
</glyph>
<glyph name="section" format="1">
  <advance width="650"/>
  <unicode hex="00A7"/>
  <outline>
    <contour>
      <point x="645" y="670" type="curve"/>
      <point x="583" y="598" type="line"/>
      <point x="540" y="629"/>
      <point x="469" y="655"/>
      <point x="392" y="655" type="curve" smooth="yes"/>
      <point x="307" y="655"/>
      <point x="258" y="625"/>
      <point x="258" y="583" type="curve" smooth="yes"/>
      <point x="258" y="555"/>
      <point x="274" y="536"/>
      <point x="330" y="513" type="curve" smooth="yes"/>
      <point x="498" y="444" type="line" smooth="yes"/>
      <point x="580" y="410"/>
      <point x="612" y="361"/>
      <point x="612" y="292" type="curve" smooth="yes"/>
      <point x="612" y="199"/>
      <point x="542" y="117"/>
      <point x="468" y="73" type="curve"/>
      <point x="484" y="52"/>
      <point x="492" y="27"/>
      <point x="492" y="-2" type="curve" smooth="yes"/>
      <point x="492" y="-130"/>
      <point x="364" y="-179"/>
      <point x="234" y="-179" type="curve" smooth="yes"/>
      <point x="130" y="-179"/>
      <point x="53" y="-148"/>
      <point x="-1" y="-107" type="curve"/>
      <point x="61" y="-35" type="line"/>
      <point x="104" y="-66"/>
      <point x="175" y="-92"/>
      <point x="252" y="-92" type="curve" smooth="yes"/>
      <point x="337" y="-92"/>
      <point x="386" y="-62"/>
      <point x="386" y="-20" type="curve" smooth="yes"/>
      <point x="386" y="8"/>
      <point x="370" y="27"/>
      <point x="314" y="50" type="curve" smooth="yes"/>
      <point x="146" y="119" type="line" smooth="yes"/>
      <point x="64" y="153"/>
      <point x="32" y="202"/>
      <point x="32" y="271" type="curve" smooth="yes"/>
      <point x="32" y="364"/>
      <point x="102" y="446"/>
      <point x="176" y="490" type="curve"/>
      <point x="160" y="511"/>
      <point x="152" y="536"/>
      <point x="152" y="565" type="curve" smooth="yes"/>
      <point x="152" y="693"/>
      <point x="280" y="742"/>
      <point x="410" y="742" type="curve" smooth="yes"/>
      <point x="514" y="742"/>
      <point x="591" y="711"/>
    </contour>
    <contour>
      <point x="507" y="270" type="curve" smooth="yes"/>
      <point x="507" y="308"/>
      <point x="484" y="338"/>
      <point x="421" y="364" type="curve" smooth="yes"/>
      <point x="254" y="434" type="line" smooth="yes"/>
      <point x="251" y="435"/>
      <point x="248" y="437"/>
      <point x="245" y="438" type="curve"/>
      <point x="187" y="404"/>
      <point x="137" y="355"/>
      <point x="137" y="293" type="curve" smooth="yes"/>
      <point x="137" y="255"/>
      <point x="160" y="225"/>
      <point x="223" y="199" type="curve" smooth="yes"/>
      <point x="390" y="129" type="line" smooth="yes"/>
      <point x="393" y="128"/>
      <point x="396" y="126"/>
      <point x="399" y="125" type="curve"/>
      <point x="457" y="159"/>
      <point x="507" y="208"/>
    </contour>
  </outline>
</glyph>
<glyph name="dieresis" format="1">
  <advance width="500"/>
  <unicode hex="00A8"/>
  <outline>
    <contour>
      <point x="415" y="601" type="line"/>
      <point x="395" y="490" type="line"/>
      <point x="304" y="490" type="line"/>
      <point x="324" y="601" type="line"/>
    </contour>
    <contour>
      <point x="256" y="601" type="line"/>
      <point x="236" y="490" type="line"/>
      <point x="145" y="490" type="line"/>
      <point x="165" y="601" type="line"/>
    </contour>
  </outline>
</glyph>
<glyph name="ordfeminine" format="1">
  <advance width="418"/>
  <unicode hex="00AA"/>
  <outline>
    <contour>
      <point x="389" y="620" type="curve" smooth="yes"/>
      <point x="350" y="399" type="line"/>
      <point x="277" y="399" type="line"/>
      <point x="283" y="437" type="line"/>
      <point x="254" y="409"/>
      <point x="216" y="390"/>
      <point x="176" y="390" type="curve" smooth="yes"/>
      <point x="113" y="390"/>
      <point x="77" y="426"/>
      <point x="77" y="481" type="curve" smooth="yes"/>
      <point x="77" y="576"/>
      <point x="166" y="619"/>
      <point x="257" y="619" type="curve" smooth="yes"/>
      <point x="316" y="619" type="line"/>
      <point x="323" y="659"/>
      <point x="319" y="680"/>
      <point x="266" y="680" type="curve" smooth="yes"/>
      <point x="224" y="680"/>
      <point x="191" y="675"/>
      <point x="160" y="662" type="curve"/>
      <point x="144" y="716" type="line"/>
      <point x="178" y="735"/>
      <point x="231" y="742"/>
      <point x="268" y="742" type="curve" smooth="yes"/>
      <point x="364" y="742"/>
      <point x="404" y="707"/>
    </contour>
    <contour>
      <point x="354" y="336" type="line"/>
      <point x="343" y="270" type="line"/>
      <point x="56" y="270" type="line"/>
      <point x="67" y="336" type="line"/>
    </contour>
    <contour>
      <point x="305" y="561" type="line"/>
      <point x="249" y="561" type="line" smooth="yes"/>
      <point x="203" y="561"/>
      <point x="151" y="538"/>
      <point x="151" y="494" type="curve" smooth="yes"/>
      <point x="151" y="462"/>
      <point x="172" y="452"/>
      <point x="194" y="452" type="curve" smooth="yes"/>
      <point x="230" y="452"/>
      <point x="277" y="486"/>
      <point x="296" y="511" type="curve"/>
    </contour>
  </outline>
</glyph>
<glyph name="guillemotleft" format="1">
  <advance width="353"/>
  <unicode hex="00AB"/>
  <outline>
    <contour>
      <point x="320" y="365" type="line"/>
      <point x="303" y="265" type="line"/>
      <point x="221" y="205" type="line"/>
      <point x="281" y="144" type="line"/>
      <point x="263" y="42" type="line"/>
      <point x="143" y="167" type="line"/>
      <point x="157" y="242" type="line"/>
    </contour>
    <contour>
      <point x="165" y="365" type="line"/>
      <point x="148" y="265" type="line"/>
      <point x="66" y="205" type="line"/>
      <point x="126" y="144" type="line"/>
      <point x="108" y="42" type="line"/>
      <point x="-11" y="167" type="line"/>
      <point x="3" y="242" type="line"/>
    </contour>
  </outline>
</glyph>
<glyph name="degree" format="1">
  <advance width="424"/>
  <unicode hex="00B0"/>
  <outline>
    <contour>
      <point x="432" y="554" type="curve" smooth="yes"/>
      <point x="432" y="450"/>
      <point x="348" y="366"/>
      <point x="244" y="366" type="curve" smooth="yes"/>
      <point x="140" y="366"/>
      <point x="56" y="450"/>
      <point x="56" y="554" type="curve" smooth="yes"/>
      <point x="56" y="658"/>
      <point x="140" y="742"/>
      <point x="244" y="742" type="curve" smooth="yes"/>
      <point x="348" y="742"/>
      <point x="432" y="658"/>
    </contour>
    <contour>
      <point x="351" y="554" type="curve" smooth="yes"/>
      <point x="351" y="613"/>
      <point x="303" y="661"/>
      <point x="244" y="661" type="curve" smooth="yes"/>
      <point x="185" y="661"/>
      <point x="137" y="613"/>
      <point x="137" y="554" type="curve" smooth="yes"/>
      <point x="137" y="495"/>
      <point x="185" y="447"/>
      <point x="244" y="447" type="curve" smooth="yes"/>
      <point x="303" y="447"/>
      <point x="351" y="495"/>
    </contour>
  </outline>
</glyph>
<glyph name="twosuperior" format="1">
  <advance width="448"/>
  <unicode hex="00B2"/>
  <outline>
    <contour>
      <point x="237" y="385" type="line"/>
      <point x="387" y="385" type="line"/>
      <point x="372" y="307" type="line"/>
      <point x="65" y="307" type="line"/>
      <point x="282" y="534" type="line" smooth="yes"/>
      <point x="309" y="562"/>
      <point x="327" y="587"/>
      <point x="327" y="611" type="curve" smooth="yes"/>
      <point x="327" y="644"/>
      <point x="308" y="665"/>
      <point x="271" y="665" type="curve" smooth="yes"/>
      <point x="221" y="665"/>
      <point x="196" y="623"/>
      <point x="190" y="586" type="curve"/>
      <point x="109" y="586" type="line"/>
      <point x="121" y="664"/>
      <point x="175" y="740"/>
      <point x="273" y="740" type="curve" smooth="yes"/>
      <point x="370" y="740"/>
      <point x="410" y="687"/>
      <point x="410" y="615" type="curve" smooth="yes"/>
      <point x="410" y="553"/>
      <point x="369" y="515"/>
      <point x="336" y="482" type="curve" smooth="yes"/>
    </contour>
  </outline>
</glyph>
<glyph name="acute" format="1">
  <advance width="500"/>
  <unicode hex="00B4"/>
  <outline>
    <contour>
      <point x="387" y="637" type="line"/>
      <point x="268" y="490" type="line"/>
      <point x="169" y="490" type="line"/>
      <point x="288" y="637" type="line"/>
    </contour>
  </outline>
</glyph>
<glyph name="paragraph" format="1">
  <advance width="675"/>
  <unicode hex="00B6"/>
  <outline>
    <contour>
      <point x="672" y="730" type="line"/>
      <point x="512" y="-179" type="line"/>
      <point x="421" y="-179" type="line"/>
      <point x="567" y="642" type="line"/>
      <point x="493" y="642" type="line"/>
      <point x="347" y="-179" type="line"/>
      <point x="256" y="-179" type="line"/>
      <point x="338" y="287" type="line"/>
      <point x="230" y="287" type="line" smooth="yes"/>
      <point x="125" y="287"/>
      <point x="46" y="368"/>
      <point x="46" y="467" type="curve" smooth="yes"/>
      <point x="46" y="620"/>
      <point x="179" y="730"/>
      <point x="327" y="730" type="curve" smooth="yes"/>
    </contour>
    <contour>
      <point x="402" y="642" type="line"/>
      <point x="328" y="642" type="line" smooth="yes"/>
      <point x="235" y="642"/>
      <point x="146" y="583"/>
      <point x="146" y="486" type="curve" smooth="yes"/>
      <point x="146" y="413"/>
      <point x="190" y="375"/>
      <point x="274" y="375" type="curve" smooth="yes"/>
      <point x="354" y="375" type="line"/>
    </contour>
  </outline>
</glyph>
<glyph name="periodcentered" format="1">
  <advance width="196"/>
  <unicode hex="00B7"/>
  <outline>
    <contour>
      <point x="157" y="416" type="line"/>
      <point x="137" y="306" type="line"/>
      <point x="37" y="306" type="line"/>
      <point x="57" y="416" type="line"/>
    </contour>
  </outline>
</glyph>
<glyph name="cedilla" format="1">
  <advance width="500"/>
  <unicode hex="00B8"/>
  <outline>
    <contour>
      <point x="264" y="-99" type="curve" smooth="yes"/>
      <point x="264" y="-154"/>
      <point x="213" y="-179"/>
      <point x="154" y="-179" type="curve" smooth="yes"/>
      <point x="118" y="-179"/>
      <point x="86" y="-166"/>
      <point x="61" y="-147" type="curve"/>
      <point x="89" y="-115" type="line"/>
      <point x="106" y="-128"/>
      <point x="126" y="-136"/>
      <point x="152" y="-136" type="curve" smooth="yes"/>
      <point x="171" y="-136"/>
      <point x="191" y="-124"/>
      <point x="191" y="-107" type="curve" smooth="yes"/>
      <point x="191" y="-92"/>
      <point x="179" y="-81"/>
      <point x="160" y="-81" type="curve" smooth="yes"/>
      <point x="146" y="-81"/>
      <point x="139" y="-82"/>
      <point x="126" y="-86" type="curve"/>
      <point x="109" y="-64" type="line"/>
      <point x="166" y="14" type="line"/>
      <point x="230" y="14" type="line"/>
      <point x="190" y="-43" type="line"/>
      <point x="237" y="-43"/>
      <point x="264" y="-69"/>
    </contour>
  </outline>
</glyph>
<glyph name="ordmasculine" format="1">
  <advance width="418"/>
  <unicode hex="00BA"/>
  <outline>
    <contour>
      <point x="401" y="605" type="curve" smooth="yes"/>
      <point x="401" y="479"/>
      <point x="314" y="390"/>
      <point x="214" y="390" type="curve" smooth="yes"/>
      <point x="133" y="390"/>
      <point x="88" y="453"/>
      <point x="88" y="532" type="curve" smooth="yes"/>
      <point x="88" y="630"/>
      <point x="164" y="742"/>
      <point x="275" y="742" type="curve" smooth="yes"/>
      <point x="355" y="742"/>
      <point x="401" y="679"/>
    </contour>
    <contour>
      <point x="351" y="336" type="line"/>
      <point x="340" y="270" type="line"/>
      <point x="53" y="270" type="line"/>
      <point x="64" y="336" type="line"/>
    </contour>
    <contour>
      <point x="326" y="593" type="curve" smooth="yes"/>
      <point x="326" y="648"/>
      <point x="305" y="675"/>
      <point x="262" y="675" type="curve" smooth="yes"/>
      <point x="207" y="675"/>
      <point x="162" y="617"/>
      <point x="162" y="541" type="curve" smooth="yes"/>
      <point x="162" y="490"/>
      <point x="182" y="457"/>
      <point x="227" y="457" type="curve" smooth="yes"/>
      <point x="294" y="457"/>
      <point x="326" y="525"/>
    </contour>
  </outline>
</glyph>
<glyph name="guillemotright" format="1">
  <advance width="353"/>
  <unicode hex="00BB"/>
  <outline>
    <contour>
      <point x="312" y="242" type="line"/>
      <point x="298" y="167" type="line"/>
      <point x="134" y="42" type="line"/>
      <point x="152" y="144" type="line"/>
      <point x="234" y="205" type="line"/>
      <point x="174" y="265" type="line"/>
      <point x="191" y="365" type="line"/>
    </contour>
    <contour>
      <point x="157" y="242" type="line"/>
      <point x="143" y="167" type="line"/>
      <point x="-21" y="42" type="line"/>
      <point x="-3" y="144" type="line"/>
      <point x="79" y="205" type="line"/>
      <point x="19" y="265" type="line"/>
      <point x="36" y="365" type="line"/>
    </contour>
  </outline>
</glyph>
<glyph name="onequarter" format="1">
  <advance width="884"/>
  <unicode hex="00BC"/>
  <outline>
    <contour>
      <point x="124" y="307" type="line"/>
      <point x="178" y="611" type="line"/>
      <point x="157" y="590"/>
      <point x="126" y="581"/>
      <point x="98" y="577" type="curve"/>
      <point x="113" y="664" type="line"/>
      <point x="157" y="669"/>
      <point x="201" y="694"/>
      <point x="221" y="729" type="curve"/>
      <point x="281" y="729" type="line"/>
      <point x="206" y="307" type="line"/>
    </contour>
    <contour>
      <point x="777" y="730" type="line"/>
      <point x="149" y="0" type="line"/>
      <point x="60" y="0" type="line"/>
      <point x="688" y="730" type="line"/>
    </contour>
    <contour>
      <point x="785" y="89" type="line"/>
      <point x="734" y="89" type="line"/>
      <point x="719" y="3" type="line"/>
      <point x="637" y="3" type="line"/>
      <point x="652" y="89" type="line"/>
      <point x="460" y="89" type="line"/>
      <point x="471" y="154" type="line"/>
      <point x="692" y="408" type="line"/>
      <point x="790" y="408" type="line"/>
      <point x="747" y="164" type="line"/>
      <point x="798" y="164" type="line"/>
    </contour>
    <contour>
      <point x="665" y="164" type="line"/>
      <point x="692" y="315" type="line"/>
      <point x="692" y="315"/>
      <point x="685" y="307"/>
      <point x="681" y="302" type="curve" smooth="yes"/>
      <point x="560" y="164" type="line"/>
    </contour>
  </outline>
</glyph>
<glyph name="onehalf" format="1">
  <advance width="934"/>
  <unicode hex="00BD"/>
  <outline>
    <contour>
      <point x="124" y="307" type="line"/>
      <point x="178" y="611" type="line"/>
      <point x="157" y="590"/>
      <point x="126" y="581"/>
      <point x="98" y="577" type="curve"/>
      <point x="113" y="664" type="line"/>
      <point x="157" y="669"/>
      <point x="201" y="694"/>
      <point x="221" y="729" type="curve"/>
      <point x="281" y="729" type="line"/>
      <point x="206" y="307" type="line"/>
    </contour>
    <contour>
      <point x="772" y="730" type="line"/>
      <point x="144" y="0" type="line"/>
      <point x="55" y="0" type="line"/>
      <point x="683" y="730" type="line"/>
    </contour>
    <contour>
      <point x="669" y="78" type="line"/>
      <point x="819" y="78" type="line"/>
      <point x="804" y="0" type="line"/>
      <point x="497" y="0" type="line"/>
      <point x="714" y="227" type="line" smooth="yes"/>
      <point x="741" y="255"/>
      <point x="759" y="280"/>
      <point x="759" y="304" type="curve" smooth="yes"/>
      <point x="759" y="339"/>
      <point x="738" y="358"/>
      <point x="698" y="358" type="curve" smooth="yes"/>
      <point x="648" y="358"/>
      <point x="627" y="313"/>
      <point x="622" y="279" type="curve"/>
      <point x="541" y="279" type="line"/>
      <point x="555" y="357"/>
      <point x="606" y="433"/>
      <point x="704" y="433" type="curve" smooth="yes"/>
      <point x="802" y="433"/>
      <point x="842" y="382"/>
      <point x="842" y="308" type="curve" smooth="yes"/>
      <point x="842" y="246"/>
      <point x="801" y="208"/>
      <point x="768" y="175" type="curve" smooth="yes"/>
    </contour>
  </outline>
</glyph>
<glyph name="threequarters" format="1">
  <advance width="964"/>
  <unicode hex="00BE"/>
  <outline>
    <contour>
      <point x="399" y="633" type="curve" smooth="yes"/>
      <point x="399" y="578"/>
      <point x="363" y="541"/>
      <point x="327" y="534" type="curve"/>
      <point x="363" y="527"/>
      <point x="381" y="496"/>
      <point x="381" y="460" type="curve" smooth="yes"/>
      <point x="381" y="373"/>
      <point x="314" y="302"/>
      <point x="200" y="302" type="curve" smooth="yes"/>
      <point x="149" y="302"/>
      <point x="98" y="322"/>
      <point x="76" y="342" type="curve"/>
      <point x="123" y="402" type="line"/>
      <point x="143" y="386"/>
      <point x="176" y="375"/>
      <point x="207" y="375" type="curve" smooth="yes"/>
      <point x="267" y="375"/>
      <point x="303" y="414"/>
      <point x="303" y="452" type="curve" smooth="yes"/>
      <point x="303" y="487"/>
      <point x="280" y="499"/>
      <point x="239" y="499" type="curve" smooth="yes"/>
      <point x="198" y="499" type="line"/>
      <point x="206" y="560" type="line"/>
      <point x="247" y="560" type="line" smooth="yes"/>
      <point x="287" y="560"/>
      <point x="321" y="579"/>
      <point x="321" y="621" type="curve" smooth="yes"/>
      <point x="321" y="637"/>
      <point x="316" y="665"/>
      <point x="266" y="665" type="curve" smooth="yes"/>
      <point x="223" y="665"/>
      <point x="197" y="637"/>
      <point x="180" y="615" type="curve"/>
      <point x="123" y="656" type="line"/>
      <point x="141" y="685"/>
      <point x="191" y="739"/>
      <point x="274" y="739" type="curve" smooth="yes"/>
      <point x="381" y="739"/>
      <point x="399" y="669"/>
    </contour>
    <contour>
      <point x="865" y="730" type="line"/>
      <point x="237" y="0" type="line"/>
      <point x="148" y="0" type="line"/>
      <point x="776" y="730" type="line"/>
    </contour>
    <contour>
      <point x="865" y="89" type="line"/>
      <point x="814" y="89" type="line"/>
      <point x="799" y="3" type="line"/>
      <point x="717" y="3" type="line"/>
      <point x="732" y="89" type="line"/>
      <point x="540" y="89" type="line"/>
      <point x="551" y="154" type="line"/>
      <point x="772" y="408" type="line"/>
      <point x="870" y="408" type="line"/>
      <point x="827" y="164" type="line"/>
      <point x="878" y="164" type="line"/>
    </contour>
    <contour>
      <point x="745" y="164" type="line"/>
      <point x="772" y="315" type="line"/>
      <point x="772" y="315"/>
      <point x="765" y="307"/>
      <point x="761" y="302" type="curve" smooth="yes"/>
      <point x="640" y="164" type="line"/>
    </contour>
  </outline>
</glyph>
<glyph name="questiondown" format="1">
  <advance width="441"/>
  <unicode hex="00BF"/>
  <outline>
    <contour>
      <point x="346" y="742" type="line"/>
      <point x="327" y="632" type="line"/>
      <point x="226" y="632" type="line"/>
      <point x="245" y="742" type="line"/>
    </contour>
    <contour>
      <point x="382" y="92" type="line"/>
      <point x="319" y="31"/>
      <point x="253" y="0"/>
      <point x="171" y="0" type="curve" smooth="yes"/>
      <point x="70" y="0"/>
      <point x="-1" y="55"/>
      <point x="-1" y="155" type="curve" smooth="yes"/>
      <point x="-1" y="260"/>
      <point x="50" y="312"/>
      <point x="138" y="408" type="curve" smooth="yes"/>
      <point x="180" y="454"/>
      <point x="209" y="511"/>
      <point x="221" y="583" type="curve"/>
      <point x="314" y="583" type="line"/>
      <point x="296" y="481"/>
      <point x="254" y="413"/>
      <point x="200" y="355" type="curve" smooth="yes"/>
      <point x="138" y="288"/>
      <point x="98" y="240"/>
      <point x="98" y="180" type="curve" smooth="yes"/>
      <point x="98" y="118"/>
      <point x="129" y="87"/>
      <point x="186" y="87" type="curve" smooth="yes"/>
      <point x="239" y="87"/>
      <point x="289" y="119"/>
      <point x="328" y="159" type="curve"/>
    </contour>
  </outline>
</glyph>
<glyph name="Adieresis" format="1">
  <advance width="664"/>
  <unicode hex="00C4"/>
  <outline>
    <contour>
      <point x="626" y="730" type="line"/>
      <point x="606" y="619" type="line"/>
      <point x="515" y="619" type="line"/>
      <point x="535" y="730" type="line"/>
    </contour>
    <contour>
      <point x="251" y="730" type="line"/>
      <point x="231" y="619" type="line"/>
      <point x="140" y="619" type="line"/>
      <point x="160" y="730" type="line"/>
    </contour>
    <component base="A"/>
  </outline>
</glyph>
<glyph name="Aring" format="1">
  <advance width="664"/>
  <unicode hex="00C5"/>
  <outline>
    <contour>
      <point x="570" y="0" type="line"/>
      <point x="466" y="0" type="line"/>
      <point x="422" y="236" type="line"/>
      <point x="197" y="236" type="line"/>
      <point x="67" y="0" type="line"/>
      <point x="-36" y="0" type="line"/>
      <point x="341" y="690" type="line"/>
      <point x="308" y="709"/>
      <point x="286" y="745"/>
      <point x="286" y="787" type="curve" smooth="yes"/>
      <point x="286" y="850"/>
      <point x="336" y="900"/>
      <point x="399" y="900" type="curve" smooth="yes"/>
      <point x="462" y="900"/>
      <point x="512" y="850"/>
      <point x="512" y="787" type="curve" smooth="yes"/>
      <point x="512" y="737"/>
      <point x="481" y="696"/>
      <point x="437" y="680" type="curve"/>
    </contour>
    <contour>
      <point x="453" y="787" type="curve" smooth="yes"/>
      <point x="453" y="817"/>
      <point x="429" y="841"/>
      <point x="399" y="841" type="curve" smooth="yes"/>
      <point x="369" y="841"/>
      <point x="345" y="817"/>
      <point x="345" y="787" type="curve" smooth="yes"/>
      <point x="345" y="757"/>
      <point x="369" y="733"/>
      <point x="399" y="733" type="curve" smooth="yes"/>
      <point x="429" y="733"/>
      <point x="453" y="757"/>
    </contour>
    <contour>
      <point x="405" y="326" type="line"/>
      <point x="366" y="564" type="line"/>
      <point x="246" y="326" type="line"/>
    </contour>
  </outline>
</glyph>
<glyph name="AE" format="1">
  <advance width="896"/>
  <unicode hex="00C6"/>
  <outline>
    <contour>
      <point x="894" y="730" type="line"/>
      <point x="878" y="640" type="line"/>
      <point x="583" y="640" type="line"/>
      <point x="541" y="403" type="line"/>
      <point x="829" y="403" type="line"/>
      <point x="813" y="313" type="line"/>
      <point x="525" y="313" type="line"/>
      <point x="486" y="90" type="line"/>
      <point x="800" y="90" type="line"/>
      <point x="784" y="0" type="line"/>
      <point x="377" y="0" type="line"/>
      <point x="419" y="236" type="line"/>
      <point x="244" y="236" type="line"/>
      <point x="64" y="0" type="line"/>
      <point x="-46" y="0" type="line"/>
      <point x="506" y="730" type="line"/>
    </contour>
    <contour>
      <point x="485" y="579" type="line"/>
      <point x="304" y="326" type="line"/>
      <point x="435" y="326" type="line"/>
    </contour>
  </outline>
</glyph>
<glyph name="Ccedilla" format="1">
  <advance width="691"/>
  <unicode hex="00C7"/>
  <outline>
    <contour>
      <point x="690" y="638" type="curve"/>
      <point x="608" y="576" type="line"/>
      <point x="574" y="617"/>
      <point x="531" y="648"/>
      <point x="439" y="648" type="curve" smooth="yes"/>
      <point x="258" y="648"/>
      <point x="137" y="465"/>
      <point x="137" y="310" type="curve" smooth="yes"/>
      <point x="137" y="180"/>
      <point x="208" y="82"/>
      <point x="350" y="82" type="curve" smooth="yes"/>
      <point x="420" y="82"/>
      <point x="485" y="110"/>
      <point x="551" y="180" type="curve"/>
      <point x="614" y="116" type="line"/>
      <point x="552" y="50"/>
      <point x="463" y="-1"/>
      <point x="365" y="-10" type="curve"/>
      <point x="342" y="-43" type="line"/>
      <point x="389" y="-43"/>
      <point x="416" y="-69"/>
      <point x="416" y="-99" type="curve" smooth="yes"/>
      <point x="416" y="-154"/>
      <point x="365" y="-179"/>
      <point x="306" y="-179" type="curve" smooth="yes"/>
      <point x="270" y="-179"/>
      <point x="238" y="-166"/>
      <point x="213" y="-147" type="curve"/>
      <point x="241" y="-115" type="line"/>
      <point x="258" y="-128"/>
      <point x="278" y="-136"/>
      <point x="304" y="-136" type="curve" smooth="yes"/>
      <point x="323" y="-136"/>
      <point x="343" y="-124"/>
      <point x="343" y="-107" type="curve" smooth="yes"/>
      <point x="343" y="-92"/>
      <point x="331" y="-81"/>
      <point x="312" y="-81" type="curve" smooth="yes"/>
      <point x="298" y="-81"/>
      <point x="291" y="-82"/>
      <point x="278" y="-86" type="curve"/>
      <point x="261" y="-64" type="line"/>
      <point x="300" y="-11" type="line"/>
      <point x="135" y="3"/>
      <point x="36" y="128"/>
      <point x="36" y="291" type="curve" smooth="yes"/>
      <point x="36" y="567"/>
      <point x="255" y="742"/>
      <point x="464" y="742" type="curve" smooth="yes"/>
      <point x="590" y="742"/>
      <point x="643" y="692"/>
    </contour>
  </outline>
</glyph>
<glyph name="Eth" format="1">
  <advance width="684"/>
  <unicode hex="00D0"/>
  <outline>
    <contour>
      <point x="649" y="448" type="curve" smooth="yes"/>
      <point x="649" y="178"/>
      <point x="452" y="0"/>
      <point x="209" y="0" type="curve" smooth="yes"/>
      <point x="22" y="0" type="line"/>
      <point x="77" y="309" type="line"/>
      <point x="17" y="309" type="line"/>
      <point x="33" y="403" type="line"/>
      <point x="93" y="403" type="line"/>
      <point x="151" y="730" type="line"/>
      <point x="333" y="730" type="line" smooth="yes"/>
      <point x="516" y="730"/>
      <point x="649" y="640"/>
    </contour>
    <contour>
      <point x="549" y="425" type="curve" smooth="yes"/>
      <point x="549" y="574"/>
      <point x="475" y="644"/>
      <point x="319" y="644" type="curve" smooth="yes"/>
      <point x="234" y="644" type="line"/>
      <point x="191" y="403" type="line"/>
      <point x="365" y="403" type="line"/>
      <point x="349" y="309" type="line"/>
      <point x="174" y="309" type="line"/>
      <point x="135" y="86" type="line"/>
      <point x="213" y="86" type="line" smooth="yes"/>
      <point x="424" y="86"/>
      <point x="549" y="250"/>
    </contour>
  </outline>
</glyph>
<glyph name="Odieresis" format="1">
  <advance width="806"/>
  <unicode hex="00D6"/>
  <outline>
    <contour>
      <point x="859" y="730" type="line"/>
      <point x="839" y="619" type="line"/>
      <point x="748" y="619" type="line"/>
      <point x="768" y="730" type="line"/>
    </contour>
    <contour>
      <point x="156" y="730" type="line"/>
      <point x="136" y="619" type="line"/>
      <point x="45" y="619" type="line"/>
      <point x="65" y="730" type="line"/>
    </contour>
    <component base="O"/>
  </outline>
</glyph>
<glyph name="multiply" format="1">
  <advance width="502"/>
  <unicode hex="00D7"/>
  <outline>
    <contour>
      <point x="191" y="334" type="line"/>
      <point x="75" y="480" type="line"/>
      <point x="145" y="540" type="line"/>
      <point x="260" y="395" type="line"/>
      <point x="427" y="540" type="line"/>
      <point x="477" y="475" type="line"/>
      <point x="311" y="331" type="line"/>
      <point x="431" y="181" type="line"/>
      <point x="361" y="121" type="line"/>
      <point x="242" y="270" type="line"/>
      <point x="71" y="121" type="line"/>
      <point x="21" y="186" type="line"/>
    </contour>
  </outline>
</glyph>
<glyph name="Oslash" format="1">
  <advance width="806"/>
  <unicode hex="00D8"/>
  <outline>
    <contour>
      <point x="781" y="694" type="line"/>
      <point x="716" y="629" type="line"/>
      <point x="752" y="578"/>
      <point x="770" y="514"/>
      <point x="770" y="444" type="curve" smooth="yes"/>
      <point x="770" y="172"/>
      <point x="547" y="-12"/>
      <point x="341" y="-12" type="curve" smooth="yes"/>
      <point x="261" y="-12"/>
      <point x="191" y="11"/>
      <point x="140" y="52" type="curve"/>
      <point x="88" y="0" type="line"/>
      <point x="37" y="48" type="line"/>
      <point x="92" y="103" type="line"/>
      <point x="56" y="153"/>
      <point x="36" y="216"/>
      <point x="36" y="289" type="curve" smooth="yes"/>
      <point x="36" y="577"/>
      <point x="263" y="742"/>
      <point x="474" y="742" type="curve" smooth="yes"/>
      <point x="555" y="742"/>
      <point x="619" y="719"/>
      <point x="668" y="680" type="curve"/>
      <point x="730" y="742" type="line"/>
    </contour>
    <contour>
      <point x="594" y="606" type="line"/>
      <point x="560" y="633"/>
      <point x="512" y="648"/>
      <point x="449" y="648" type="curve" smooth="yes"/>
      <point x="258" y="648"/>
      <point x="137" y="470"/>
      <point x="137" y="315" type="curve" smooth="yes"/>
      <point x="137" y="262"/>
      <point x="148" y="216"/>
      <point x="168" y="180" type="curve"/>
    </contour>
    <contour>
      <point x="670" y="425" type="curve" smooth="yes"/>
      <point x="670" y="474"/>
      <point x="660" y="518"/>
      <point x="640" y="553" type="curve"/>
      <point x="214" y="126" type="line"/>
      <point x="250" y="98"/>
      <point x="299" y="82"/>
      <point x="360" y="82" type="curve" smooth="yes"/>
      <point x="529" y="82"/>
      <point x="670" y="250"/>
    </contour>
  </outline>
</glyph>
<glyph name="Udieresis" format="1">
  <advance width="679"/>
  <unicode hex="00DC"/>
  <outline>
    <contour>
      <point x="527" y="730" type="line"/>
      <point x="507" y="619" type="line"/>
      <point x="416" y="619" type="line"/>
      <point x="436" y="730" type="line"/>
    </contour>
    <contour>
      <point x="373" y="730" type="line"/>
      <point x="353" y="619" type="line"/>
      <point x="262" y="619" type="line"/>
      <point x="282" y="730" type="line"/>
    </contour>
    <component base="U"/>
  </outline>
</glyph>
<glyph name="Thorn" format="1">
  <advance width="531"/>
  <unicode hex="00DE"/>
  <outline>
    <contour>
      <point x="509" y="415" type="curve" smooth="yes"/>
      <point x="509" y="261"/>
      <point x="377" y="151"/>
      <point x="227" y="151" type="curve" smooth="yes"/>
      <point x="125" y="151" type="line"/>
      <point x="98" y="0" type="line"/>
      <point x="2" y="0" type="line"/>
      <point x="131" y="730" type="line"/>
      <point x="227" y="730" type="line"/>
      <point x="203" y="594" type="line"/>
      <point x="306" y="594" type="line" smooth="yes"/>
      <point x="454" y="594"/>
      <point x="509" y="500"/>
    </contour>
    <contour>
      <point x="409" y="400" type="curve" smooth="yes"/>
      <point x="409" y="462"/>
      <point x="367" y="504"/>
      <point x="274" y="504" type="curve" smooth="yes"/>
      <point x="187" y="504" type="line"/>
      <point x="141" y="241" type="line"/>
      <point x="235" y="241" type="line" smooth="yes"/>
      <point x="329" y="241"/>
      <point x="409" y="300"/>
    </contour>
  </outline>
</glyph>
<glyph name="germandbls" format="1">
  <advance width="450"/>
  <unicode hex="00DF"/>
  <outline>
    <contour>
      <point x="428" y="600" type="curve" smooth="yes"/>
      <point x="428" y="500"/>
      <point x="355" y="427"/>
      <point x="308" y="412" type="curve"/>
      <point x="342" y="386"/>
      <point x="391" y="327"/>
      <point x="391" y="235" type="curve" smooth="yes"/>
      <point x="391" y="94"/>
      <point x="315" y="-12"/>
      <point x="186" y="-12" type="curve" smooth="yes"/>
      <point x="164" y="-12"/>
      <point x="144" y="-8"/>
      <point x="124" y="0" type="curve"/>
      <point x="140" y="82" type="line"/>
      <point x="153" y="76"/>
      <point x="174" y="73"/>
      <point x="193" y="73" type="curve" smooth="yes"/>
      <point x="260" y="73"/>
      <point x="295" y="138"/>
      <point x="295" y="227" type="curve" smooth="yes"/>
      <point x="295" y="305"/>
      <point x="254" y="377"/>
      <point x="201" y="391" type="curve"/>
      <point x="213" y="454" type="line"/>
      <point x="221" y="454" type="line" smooth="yes"/>
      <point x="278" y="454"/>
      <point x="336" y="514"/>
      <point x="336" y="590" type="curve" smooth="yes"/>
      <point x="336" y="633"/>
      <point x="315" y="666"/>
      <point x="275" y="666" type="curve" smooth="yes"/>
      <point x="220" y="666"/>
      <point x="186" y="620"/>
      <point x="173" y="546" type="curve" smooth="yes"/>
      <point x="46" y="-179" type="line"/>
      <point x="-44" y="-179" type="line"/>
      <point x="82" y="539" type="line" smooth="yes"/>
      <point x="104" y="664"/>
      <point x="162" y="742"/>
      <point x="285" y="742" type="curve" smooth="yes"/>
      <point x="363" y="742"/>
      <point x="428" y="686"/>
    </contour>
  </outline>
</glyph>
<glyph name="ae" format="1">
  <advance width="714"/>
  <unicode hex="00E6"/>
  <outline>
    <contour>
      <point x="656" y="273" type="curve" smooth="yes"/>
      <point x="656" y="247"/>
      <point x="654" y="216"/>
      <point x="647" y="195" type="curve"/>
      <point x="361" y="195" type="line"/>
      <point x="361" y="191"/>
      <point x="361" y="186"/>
      <point x="361" y="182" type="curve" smooth="yes"/>
      <point x="361" y="108"/>
      <point x="398" y="68"/>
      <point x="455" y="68" type="curve" smooth="yes"/>
      <point x="507" y="68"/>
      <point x="559" y="93"/>
      <point x="589" y="122" type="curve"/>
      <point x="636" y="65" type="line"/>
      <point x="595" y="24"/>
      <point x="534" y="-12"/>
      <point x="451" y="-12" type="curve" smooth="yes"/>
      <point x="376" y="-12"/>
      <point x="321" y="19"/>
      <point x="297" y="78" type="curve"/>
      <point x="258" y="29"/>
      <point x="183" y="-12"/>
      <point x="114" y="-12" type="curve" smooth="yes"/>
      <point x="35" y="-12"/>
      <point x="-10" y="33"/>
      <point x="-10" y="102" type="curve" smooth="yes"/>
      <point x="-10" y="221"/>
      <point x="101" y="275"/>
      <point x="215" y="275" type="curve" smooth="yes"/>
      <point x="289" y="275" type="line"/>
      <point x="298" y="325"/>
      <point x="293" y="351"/>
      <point x="226" y="351" type="curve" smooth="yes"/>
      <point x="174" y="351"/>
      <point x="133" y="344"/>
      <point x="94" y="328" type="curve"/>
      <point x="74" y="396" type="line"/>
      <point x="117" y="419"/>
      <point x="183" y="428"/>
      <point x="229" y="428" type="curve" smooth="yes"/>
      <point x="297" y="428"/>
      <point x="346" y="412"/>
      <point x="361" y="372" type="curve"/>
      <point x="397" y="408"/>
      <point x="447" y="428"/>
      <point x="498" y="428" type="curve" smooth="yes"/>
      <point x="584" y="428"/>
      <point x="656" y="361"/>
    </contour>
    <contour>
      <point x="571" y="259" type="line"/>
      <point x="574" y="298"/>
      <point x="559" y="351"/>
      <point x="493" y="351" type="curve" smooth="yes"/>
      <point x="438" y="351"/>
      <point x="396" y="311"/>
      <point x="376" y="259" type="curve"/>
    </contour>
    <contour>
      <point x="275" y="202" type="line"/>
      <point x="205" y="202" type="line" smooth="yes"/>
      <point x="148" y="202"/>
      <point x="83" y="173"/>
      <point x="83" y="118" type="curve" smooth="yes"/>
      <point x="83" y="78"/>
      <point x="109" y="66"/>
      <point x="136" y="66" type="curve" smooth="yes"/>
      <point x="182" y="66"/>
      <point x="240" y="108"/>
      <point x="264" y="140" type="curve"/>
    </contour>
  </outline>
</glyph>
<glyph name="ccedilla" format="1">
  <advance width="400"/>
  <unicode hex="00E7"/>
  <outline>
    <contour>
      <point x="363" y="385" type="curve"/>
      <point x="307" y="316" type="line"/>
      <point x="284" y="336"/>
      <point x="261" y="345"/>
      <point x="220" y="345" type="curve" smooth="yes"/>
      <point x="150" y="345"/>
      <point x="91" y="264"/>
      <point x="91" y="177" type="curve" smooth="yes"/>
      <point x="91" y="117"/>
      <point x="120" y="72"/>
      <point x="177" y="72" type="curve" smooth="yes"/>
      <point x="217" y="72"/>
      <point x="253" y="92"/>
      <point x="282" y="123" type="curve"/>
      <point x="335" y="63" type="line"/>
      <point x="299" y="26"/>
      <point x="252" y="-5"/>
      <point x="185" y="-11" type="curve"/>
      <point x="163" y="-43" type="line"/>
      <point x="210" y="-43"/>
      <point x="237" y="-69"/>
      <point x="237" y="-99" type="curve" smooth="yes"/>
      <point x="237" y="-154"/>
      <point x="186" y="-179"/>
      <point x="127" y="-179" type="curve" smooth="yes"/>
      <point x="91" y="-179"/>
      <point x="59" y="-166"/>
      <point x="34" y="-147" type="curve"/>
      <point x="62" y="-115" type="line"/>
      <point x="79" y="-128"/>
      <point x="99" y="-136"/>
      <point x="125" y="-136" type="curve" smooth="yes"/>
      <point x="144" y="-136"/>
      <point x="164" y="-124"/>
      <point x="164" y="-107" type="curve" smooth="yes"/>
      <point x="164" y="-92"/>
      <point x="152" y="-81"/>
      <point x="133" y="-81" type="curve" smooth="yes"/>
      <point x="119" y="-81"/>
      <point x="112" y="-82"/>
      <point x="99" y="-86" type="curve"/>
      <point x="82" y="-64" type="line"/>
      <point x="123" y="-7" type="line"/>
      <point x="49" y="11"/>
      <point x="-2" y="81"/>
      <point x="-2" y="165" type="curve" smooth="yes"/>
      <point x="-2" y="292"/>
      <point x="92" y="428"/>
      <point x="232" y="428" type="curve" smooth="yes"/>
      <point x="297" y="428"/>
      <point x="340" y="409"/>
    </contour>
  </outline>
</glyph>
<glyph name="eth" format="1">
  <advance width="444"/>
  <unicode hex="00F0"/>
  <outline>
    <contour>
      <point x="389" y="277" type="curve" smooth="yes"/>
      <point x="389" y="87"/>
      <point x="281" y="-12"/>
      <point x="156" y="-12" type="curve" smooth="yes"/>
      <point x="54" y="-12"/>
      <point x="-2" y="67"/>
      <point x="-2" y="165" type="curve" smooth="yes"/>
      <point x="-2" y="288"/>
      <point x="89" y="428"/>
      <point x="207" y="428" type="curve" smooth="yes"/>
      <point x="248" y="428"/>
      <point x="271" y="415"/>
      <point x="285" y="399" type="curve"/>
      <point x="279" y="441"/>
      <point x="260" y="496"/>
      <point x="231" y="551" type="curve"/>
      <point x="132" y="511" type="line"/>
      <point x="99" y="579" type="line"/>
      <point x="192" y="617" type="line"/>
      <point x="169" y="651"/>
      <point x="142" y="683"/>
      <point x="113" y="710" type="curve"/>
      <point x="153" y="749" type="line"/>
      <point x="197" y="720"/>
      <point x="233" y="684"/>
      <point x="262" y="645" type="curve"/>
      <point x="336" y="675" type="line"/>
      <point x="368" y="607" type="line"/>
      <point x="305" y="582" type="line"/>
      <point x="367" y="474"/>
      <point x="389" y="356"/>
    </contour>
    <contour>
      <point x="295" y="242" type="curve" smooth="yes"/>
      <point x="295" y="310"/>
      <point x="269" y="344"/>
      <point x="215" y="344" type="curve" smooth="yes"/>
      <point x="147" y="344"/>
      <point x="91" y="271"/>
      <point x="91" y="177" type="curve" smooth="yes"/>
      <point x="91" y="113"/>
      <point x="115" y="72"/>
      <point x="172" y="72" type="curve" smooth="yes"/>
      <point x="255" y="72"/>
      <point x="295" y="157"/>
    </contour>
  </outline>
</glyph>
<glyph name="oslash" format="1">
  <advance width="448"/>
  <unicode hex="00F8"/>
  <outline>
    <contour>
      <point x="413" y="391" type="line"/>
      <point x="375" y="353" type="line"/>
      <point x="393" y="325"/>
      <point x="403" y="292"/>
      <point x="403" y="257" type="curve" smooth="yes"/>
      <point x="403" y="99"/>
      <point x="300" y="-12"/>
      <point x="167" y="-12" type="curve" smooth="yes"/>
      <point x="122" y="-12"/>
      <point x="84" y="3"/>
      <point x="55" y="29" type="curve"/>
      <point x="14" y="-12" type="line"/>
      <point x="-23" y="25" type="line"/>
      <point x="22" y="70" type="line"/>
      <point x="7" y="98"/>
      <point x="-2" y="130"/>
      <point x="-2" y="165" type="curve" smooth="yes"/>
      <point x="-2" y="291"/>
      <point x="90" y="428"/>
      <point x="235" y="428" type="curve" smooth="yes"/>
      <point x="277" y="428"/>
      <point x="312" y="414"/>
      <point x="340" y="392" type="curve"/>
      <point x="376" y="428" type="line"/>
    </contour>
    <contour>
      <point x="276" y="327" type="line"/>
      <point x="262" y="338"/>
      <point x="244" y="344"/>
      <point x="222" y="344" type="curve" smooth="yes"/>
      <point x="154" y="344"/>
      <point x="91" y="271"/>
      <point x="91" y="177" type="curve" smooth="yes"/>
      <point x="91" y="165"/>
      <point x="92" y="154"/>
      <point x="94" y="143" type="curve"/>
    </contour>
    <contour>
      <point x="309" y="242" type="curve" smooth="yes"/>
      <point x="309" y="257"/>
      <point x="307" y="270"/>
      <point x="304" y="281" type="curve"/>
      <point x="119" y="94" type="line"/>
      <point x="134" y="80"/>
      <point x="154" y="72"/>
      <point x="179" y="72" type="curve" smooth="yes"/>
      <point x="262" y="72"/>
      <point x="309" y="157"/>
    </contour>
  </outline>
</glyph>
<glyph name="dotlessi" format="1">
  <advance width="194"/>
  <unicode hex="0131"/>
  <outline>
    <contour>
      <point x="151" y="416" type="line"/>
      <point x="78" y="0" type="line"/>
      <point x="-13" y="0" type="line"/>
      <point x="60" y="416" type="line"/>
    </contour>
  </outline>
</glyph>
<glyph name="Lslash" format="1">
  <advance width="467"/>
  <unicode hex="0141"/>
  <outline>
    <contour>
      <point x="396" y="90" type="line"/>
      <point x="380" y="0" type="line"/>
      <point x="23" y="0" type="line"/>
      <point x="76" y="300" type="line"/>
      <point x="36" y="288" type="line"/>
      <point x="7" y="368" type="line"/>
      <point x="93" y="394" type="line"/>
      <point x="152" y="730" type="line"/>
      <point x="248" y="730" type="line"/>
      <point x="194" y="425" type="line"/>
      <point x="335" y="468" type="line"/>
      <point x="363" y="389" type="line"/>
      <point x="178" y="332" type="line"/>
      <point x="135" y="90" type="line"/>
    </contour>
  </outline>
</glyph>
<glyph name="lslash" format="1">
  <advance width="254"/>
  <unicode hex="0142"/>
  <outline>
    <contour>
      <point x="254" y="354" type="line"/>
      <point x="167" y="327" type="line"/>
      <point x="109" y="0" type="line"/>
      <point x="18" y="0" type="line"/>
      <point x="71" y="297" type="line"/>
      <point x="31" y="285" type="line"/>
      <point x="2" y="365" type="line"/>
      <point x="87" y="391" type="line"/>
      <point x="147" y="730" type="line"/>
      <point x="238" y="730" type="line"/>
      <point x="183" y="420" type="line"/>
      <point x="226" y="433" type="line"/>
    </contour>
  </outline>
</glyph>
<glyph name="OE" format="1">
  <advance width="1118"/>
  <unicode hex="0152"/>
  <outline>
    <contour>
      <point x="1116" y="730" type="line"/>
      <point x="1100" y="640" type="line"/>
      <point x="808" y="640" type="line"/>
      <point x="766" y="403" type="line"/>
      <point x="1051" y="403" type="line"/>
      <point x="1035" y="313" type="line"/>
      <point x="750" y="313" type="line"/>
      <point x="711" y="90" type="line"/>
      <point x="1022" y="90" type="line"/>
      <point x="1006" y="0" type="line"/>
      <point x="599" y="0" type="line"/>
      <point x="618" y="109" type="line"/>
      <point x="546" y="32"/>
      <point x="437" y="-12"/>
      <point x="341" y="-12" type="curve" smooth="yes"/>
      <point x="158" y="-12"/>
      <point x="36" y="109"/>
      <point x="36" y="289" type="curve" smooth="yes"/>
      <point x="36" y="577"/>
      <point x="263" y="742"/>
      <point x="474" y="742" type="curve" smooth="yes"/>
      <point x="582" y="742"/>
      <point x="675" y="688"/>
      <point x="709" y="624" type="curve"/>
      <point x="728" y="730" type="line"/>
    </contour>
    <contour>
      <point x="670" y="425" type="curve" smooth="yes"/>
      <point x="670" y="554"/>
      <point x="605" y="648"/>
      <point x="449" y="648" type="curve" smooth="yes"/>
      <point x="258" y="648"/>
      <point x="137" y="470"/>
      <point x="137" y="315" type="curve" smooth="yes"/>
      <point x="137" y="173"/>
      <point x="213" y="82"/>
      <point x="360" y="82" type="curve" smooth="yes"/>
      <point x="529" y="82"/>
      <point x="670" y="250"/>
    </contour>
  </outline>
</glyph>
<glyph name="oe" format="1">
  <advance width="746"/>
  <unicode hex="0153"/>
  <outline>
    <contour>
      <point x="688" y="273" type="curve" smooth="yes"/>
      <point x="688" y="247"/>
      <point x="686" y="216"/>
      <point x="679" y="195" type="curve"/>
      <point x="393" y="195" type="line"/>
      <point x="393" y="191"/>
      <point x="393" y="186"/>
      <point x="393" y="182" type="curve" smooth="yes"/>
      <point x="393" y="108"/>
      <point x="430" y="68"/>
      <point x="487" y="68" type="curve" smooth="yes"/>
      <point x="539" y="68"/>
      <point x="591" y="93"/>
      <point x="621" y="122" type="curve"/>
      <point x="668" y="65" type="line"/>
      <point x="627" y="24"/>
      <point x="566" y="-12"/>
      <point x="483" y="-12" type="curve" smooth="yes"/>
      <point x="418" y="-12"/>
      <point x="360" y="18"/>
      <point x="334" y="69" type="curve"/>
      <point x="298" y="21"/>
      <point x="233" y="-12"/>
      <point x="167" y="-12" type="curve" smooth="yes"/>
      <point x="65" y="-12"/>
      <point x="-2" y="67"/>
      <point x="-2" y="165" type="curve" smooth="yes"/>
      <point x="-2" y="291"/>
      <point x="90" y="428"/>
      <point x="235" y="428" type="curve" smooth="yes"/>
      <point x="295" y="428"/>
      <point x="352" y="396"/>
      <point x="372" y="349" type="curve"/>
      <point x="401" y="393"/>
      <point x="465" y="428"/>
      <point x="530" y="428" type="curve" smooth="yes"/>
      <point x="616" y="428"/>
      <point x="688" y="361"/>
    </contour>
    <contour>
      <point x="603" y="259" type="line"/>
      <point x="606" y="298"/>
      <point x="591" y="351"/>
      <point x="525" y="351" type="curve" smooth="yes"/>
      <point x="470" y="351"/>
      <point x="428" y="311"/>
      <point x="408" y="259" type="curve"/>
    </contour>
    <contour>
      <point x="309" y="242" type="curve" smooth="yes"/>
      <point x="309" y="310"/>
      <point x="276" y="344"/>
      <point x="222" y="344" type="curve" smooth="yes"/>
      <point x="154" y="344"/>
      <point x="91" y="271"/>
      <point x="91" y="177" type="curve" smooth="yes"/>
      <point x="91" y="113"/>
      <point x="122" y="72"/>
      <point x="179" y="72" type="curve" smooth="yes"/>
      <point x="262" y="72"/>
      <point x="309" y="157"/>
    </contour>
  </outline>
</glyph>
<glyph name="florin" format="1">
  <advance width="284"/>
  <unicode hex="0192"/>
  <outline>
    <contour>
      <point x="322" y="723" type="curve"/>
      <point x="304" y="646" type="line"/>
      <point x="294" y="649"/>
      <point x="283" y="652"/>
      <point x="265" y="652" type="curve" smooth="yes"/>
      <point x="234" y="652"/>
      <point x="218" y="623"/>
      <point x="205" y="551" type="curve" smooth="yes"/>
      <point x="181" y="416" type="line"/>
      <point x="260" y="416" type="line"/>
      <point x="246" y="332" type="line"/>
      <point x="167" y="332" type="line"/>
      <point x="103" y="-32" type="line" smooth="yes"/>
      <point x="84" y="-138"/>
      <point x="28" y="-179"/>
      <point x="-30" y="-179" type="curve" smooth="yes"/>
      <point x="-62" y="-179"/>
      <point x="-82" y="-177"/>
      <point x="-99" y="-169" type="curve"/>
      <point x="-81" y="-92" type="line"/>
      <point x="-71" y="-95"/>
      <point x="-60" y="-98"/>
      <point x="-42" y="-98" type="curve" smooth="yes"/>
      <point x="-11" y="-98"/>
      <point x="5" y="-69"/>
      <point x="18" y="3" type="curve" smooth="yes"/>
      <point x="76" y="332" type="line"/>
      <point x="26" y="332" type="line"/>
      <point x="40" y="416" type="line"/>
      <point x="90" y="416" type="line"/>
      <point x="120" y="586" type="line" smooth="yes"/>
      <point x="139" y="692"/>
      <point x="195" y="733"/>
      <point x="253" y="733" type="curve" smooth="yes"/>
      <point x="285" y="733"/>
      <point x="305" y="731"/>
    </contour>
  </outline>
</glyph>
<glyph name="circumflex" format="1">
  <advance width="500"/>
  <unicode hex="02C6"/>
  <outline>
    <contour>
      <point x="410" y="490" type="line"/>
      <point x="320" y="490" type="line"/>
      <point x="280" y="574" type="line"/>
      <point x="211" y="490" type="line"/>
      <point x="116" y="490" type="line"/>
      <point x="245" y="637" type="line"/>
      <point x="333" y="637" type="line"/>
    </contour>
  </outline>
</glyph>
<glyph name="caron" format="1">
  <advance width="500"/>
  <unicode hex="02C7"/>
  <outline>
    <contour>
      <point x="437" y="637" type="line"/>
      <point x="308" y="490" type="line"/>
      <point x="220" y="490" type="line"/>
      <point x="143" y="637" type="line"/>
      <point x="238" y="637" type="line"/>
      <point x="276" y="554" type="line"/>
      <point x="344" y="637" type="line"/>
    </contour>
  </outline>
</glyph>
<glyph name="breve" format="1">
  <advance width="500"/>
  <unicode hex="02D8"/>
  <outline>
    <contour>
      <point x="440" y="634" type="line"/>
      <point x="415" y="538"/>
      <point x="347" y="487"/>
      <point x="266" y="487" type="curve" smooth="yes"/>
      <point x="185" y="487"/>
      <point x="135" y="538"/>
      <point x="144" y="634" type="curve"/>
      <point x="219" y="634" type="line"/>
      <point x="220" y="603"/>
      <point x="233" y="561"/>
      <point x="279" y="561" type="curve" smooth="yes"/>
      <point x="325" y="561"/>
      <point x="353" y="605"/>
      <point x="365" y="634" type="curve"/>
    </contour>
  </outline>
</glyph>
<glyph name="dotaccent" format="1">
  <advance width="500"/>
  <unicode hex="02D9"/>
  <outline>
    <contour>
      <point x="332" y="601" type="line"/>
      <point x="312" y="490" type="line"/>
      <point x="220" y="490" type="line"/>
      <point x="240" y="601" type="line"/>
    </contour>
  </outline>
</glyph>
<glyph name="ring" format="1">
  <advance width="500"/>
  <unicode hex="02DA"/>
  <outline>
    <contour>
      <point x="395" y="599" type="curve" smooth="yes"/>
      <point x="395" y="536"/>
      <point x="345" y="486"/>
      <point x="282" y="486" type="curve" smooth="yes"/>
      <point x="219" y="486"/>
      <point x="169" y="536"/>
      <point x="169" y="599" type="curve" smooth="yes"/>
      <point x="169" y="662"/>
      <point x="219" y="712"/>
      <point x="282" y="712" type="curve" smooth="yes"/>
      <point x="345" y="712"/>
      <point x="395" y="662"/>
    </contour>
    <contour>
      <point x="336" y="599" type="curve" smooth="yes"/>
      <point x="336" y="629"/>
      <point x="312" y="653"/>
      <point x="282" y="653" type="curve" smooth="yes"/>
      <point x="252" y="653"/>
      <point x="228" y="629"/>
      <point x="228" y="599" type="curve" smooth="yes"/>
      <point x="228" y="569"/>
      <point x="252" y="545"/>
      <point x="282" y="545" type="curve" smooth="yes"/>
      <point x="312" y="545"/>
      <point x="336" y="569"/>
    </contour>
  </outline>
</glyph>
<glyph name="ogonek" format="1">
  <advance width="500"/>
  <unicode hex="02DB"/>
  <outline>
    <contour>
      <point x="286" y="-149" type="line"/>
      <point x="259" y="-171"/>
      <point x="228" y="-181"/>
      <point x="187" y="-181" type="curve" smooth="yes"/>
      <point x="132" y="-181"/>
      <point x="72" y="-152"/>
      <point x="72" y="-98" type="curve" smooth="yes"/>
      <point x="72" y="-61"/>
      <point x="103" y="-23"/>
      <point x="173" y="12" type="curve"/>
      <point x="239" y="12" type="line"/>
      <point x="173" y="-34"/>
      <point x="154" y="-66"/>
      <point x="154" y="-94" type="curve" smooth="yes"/>
      <point x="154" y="-123"/>
      <point x="173" y="-133"/>
      <point x="192" y="-133" type="curve" smooth="yes"/>
      <point x="218" y="-133"/>
      <point x="235" y="-128"/>
      <point x="259" y="-112" type="curve"/>
    </contour>
  </outline>
</glyph>
<glyph name="tilde" format="1">
  <advance width="500"/>
  <unicode hex="02DC"/>
  <outline>
    <contour>
      <point x="436" y="607" type="line"/>
      <point x="427" y="541"/>
      <point x="393" y="488"/>
      <point x="327" y="488" type="curve" smooth="yes"/>
      <point x="303" y="488"/>
      <point x="277" y="505"/>
      <point x="261" y="516" type="curve" smooth="yes"/>
      <point x="246" y="527"/>
      <point x="234" y="536"/>
      <point x="218" y="536" type="curve" smooth="yes"/>
      <point x="203" y="536"/>
      <point x="193" y="518"/>
      <point x="190" y="490" type="curve"/>
      <point x="116" y="490" type="line"/>
      <point x="125" y="557"/>
      <point x="156" y="609"/>
      <point x="225" y="609" type="curve" smooth="yes"/>
      <point x="248" y="609"/>
      <point x="274" y="592"/>
      <point x="291" y="581" type="curve" smooth="yes"/>
      <point x="306" y="571"/>
      <point x="318" y="561"/>
      <point x="334" y="561" type="curve" smooth="yes"/>
      <point x="349" y="561"/>
      <point x="359" y="578"/>
      <point x="362" y="607" type="curve"/>
    </contour>
  </outline>
</glyph>
<glyph name="hungarumlaut" format="1">
  <advance width="500"/>
  <unicode hex="02DD"/>
  <outline>
    <contour>
      <point x="446" y="637" type="line"/>
      <point x="353" y="490" type="line"/>
      <point x="262" y="490" type="line"/>
      <point x="355" y="637" type="line"/>
    </contour>
    <contour>
      <point x="302" y="637" type="line"/>
      <point x="209" y="490" type="line"/>
      <point x="118" y="490" type="line"/>
      <point x="211" y="637" type="line"/>
    </contour>
  </outline>
</glyph>
<glyph name="endash" format="1">
  <advance width="440"/>
  <unicode hex="2013"/>
  <outline>
    <contour>
      <point x="373" y="254" type="line"/>
      <point x="358" y="168" type="line"/>
      <point x="8" y="168" type="line"/>
      <point x="23" y="254" type="line"/>
    </contour>
  </outline>
</glyph>
<glyph name="emdash" format="1">
  <advance width="625"/>
  <unicode hex="2014"/>
  <outline>
    <contour>
      <point x="559" y="254" type="line"/>
      <point x="543" y="168" type="line"/>
      <point x="8" y="168" type="line"/>
      <point x="24" y="254" type="line"/>
    </contour>
  </outline>
</glyph>
<glyph name="quoteleft" format="1">
  <advance width="195"/>
  <unicode hex="2018"/>
  <unicode hex="02BB"/>
  <outline>
    <contour>
      <point x="230" y="730" type="line"/>
      <point x="218" y="711"/>
      <point x="193" y="666"/>
      <point x="185" y="624" type="curve" smooth="yes"/>
      <point x="165" y="513" type="line"/>
      <point x="60" y="513" type="line"/>
      <point x="71" y="577" type="line" smooth="yes"/>
      <point x="82" y="641"/>
      <point x="144" y="706"/>
      <point x="170" y="730" type="curve"/>
    </contour>
  </outline>
</glyph>
<glyph name="quoteright" format="1">
  <advance width="195"/>
  <unicode hex="2019"/>
  <unicode hex="02BC"/>
  <outline>
    <contour>
      <point x="221" y="730" type="line"/>
      <point x="210" y="666" type="line" smooth="yes"/>
      <point x="199" y="602"/>
      <point x="137" y="537"/>
      <point x="111" y="513" type="curve"/>
      <point x="51" y="513" type="line"/>
      <point x="63" y="532"/>
      <point x="88" y="577"/>
      <point x="96" y="619" type="curve" smooth="yes"/>
      <point x="116" y="730" type="line"/>
    </contour>
  </outline>
</glyph>
<glyph name="quotesinglbase" format="1">
  <advance width="195"/>
  <unicode hex="201A"/>
  <outline>
    <contour>
      <point x="106" y="115" type="line"/>
      <point x="95" y="51" type="line" smooth="yes"/>
      <point x="84" y="-13"/>
      <point x="22" y="-78"/>
      <point x="-4" y="-102" type="curve"/>
      <point x="-64" y="-102" type="line"/>
      <point x="-52" y="-83"/>
      <point x="-27" y="-38"/>
      <point x="-19" y="4" type="curve" smooth="yes"/>
      <point x="1" y="115" type="line"/>
    </contour>
  </outline>
</glyph>
<glyph name="quotedblleft" format="1">
  <advance width="341"/>
  <unicode hex="201C"/>
  <outline>
    <contour>
      <point x="376" y="730" type="line"/>
      <point x="364" y="711"/>
      <point x="339" y="666"/>
      <point x="331" y="624" type="curve" smooth="yes"/>
      <point x="311" y="513" type="line"/>
      <point x="206" y="513" type="line"/>
      <point x="217" y="577" type="line" smooth="yes"/>
      <point x="228" y="641"/>
      <point x="290" y="706"/>
      <point x="316" y="730" type="curve"/>
    </contour>
    <contour>
      <point x="230" y="730" type="line"/>
      <point x="218" y="711"/>
      <point x="193" y="666"/>
      <point x="185" y="624" type="curve" smooth="yes"/>
      <point x="165" y="513" type="line"/>
      <point x="60" y="513" type="line"/>
      <point x="71" y="577" type="line" smooth="yes"/>
      <point x="82" y="641"/>
      <point x="144" y="706"/>
      <point x="170" y="730" type="curve"/>
    </contour>
  </outline>
</glyph>
<glyph name="quotedblright" format="1">
  <advance width="341"/>
  <unicode hex="201D"/>
  <outline>
    <contour>
      <point x="367" y="730" type="line"/>
      <point x="356" y="666" type="line" smooth="yes"/>
      <point x="345" y="602"/>
      <point x="283" y="537"/>
      <point x="257" y="513" type="curve"/>
      <point x="197" y="513" type="line"/>
      <point x="209" y="532"/>
      <point x="234" y="577"/>
      <point x="242" y="619" type="curve" smooth="yes"/>
      <point x="262" y="730" type="line"/>
    </contour>
    <contour>
      <point x="221" y="730" type="line"/>
      <point x="210" y="666" type="line" smooth="yes"/>
      <point x="199" y="602"/>
      <point x="137" y="537"/>
      <point x="111" y="513" type="curve"/>
      <point x="51" y="513" type="line"/>
      <point x="63" y="532"/>
      <point x="88" y="577"/>
      <point x="96" y="619" type="curve" smooth="yes"/>
      <point x="116" y="730" type="line"/>
    </contour>
  </outline>
</glyph>
<glyph name="quotedblbase" format="1">
  <advance width="341"/>
  <unicode hex="201E"/>
  <outline>
    <contour>
      <point x="252" y="115" type="line"/>
      <point x="241" y="51" type="line" smooth="yes"/>
      <point x="230" y="-13"/>
      <point x="168" y="-78"/>
      <point x="142" y="-102" type="curve"/>
      <point x="82" y="-102" type="line"/>
      <point x="94" y="-83"/>
      <point x="119" y="-38"/>
      <point x="127" y="4" type="curve" smooth="yes"/>
      <point x="147" y="115" type="line"/>
    </contour>
    <contour>
      <point x="106" y="115" type="line"/>
      <point x="95" y="51" type="line" smooth="yes"/>
      <point x="84" y="-13"/>
      <point x="22" y="-78"/>
      <point x="-4" y="-102" type="curve"/>
      <point x="-64" y="-102" type="line"/>
      <point x="-52" y="-83"/>
      <point x="-27" y="-38"/>
      <point x="-19" y="4" type="curve" smooth="yes"/>
      <point x="1" y="115" type="line"/>
    </contour>
  </outline>
</glyph>
<glyph name="dagger" format="1">
  <advance width="515"/>
  <unicode hex="2020"/>
  <outline>
    <contour>
      <point x="511" y="468" type="line"/>
      <point x="497" y="384" type="line"/>
      <point x="305" y="384" type="line"/>
      <point x="205" y="-179" type="line"/>
      <point x="114" y="-179" type="line"/>
      <point x="214" y="384" type="line"/>
      <point x="22" y="384" type="line"/>
      <point x="36" y="468" type="line"/>
      <point x="228" y="468" type="line"/>
      <point x="275" y="730" type="line"/>
      <point x="366" y="730" type="line"/>
      <point x="319" y="468" type="line"/>
    </contour>
  </outline>
</glyph>
<glyph name="daggerdbl" format="1">
  <advance width="515"/>
  <unicode hex="2021"/>
  <outline>
    <contour>
      <point x="511" y="468" type="line"/>
      <point x="497" y="384" type="line"/>
      <point x="305" y="384" type="line"/>
      <point x="269" y="180" type="line"/>
      <point x="461" y="180" type="line"/>
      <point x="447" y="96" type="line"/>
      <point x="254" y="96" type="line"/>
      <point x="205" y="-179" type="line"/>
      <point x="114" y="-179" type="line"/>
      <point x="163" y="96" type="line"/>
      <point x="-28" y="96" type="line"/>
      <point x="-14" y="180" type="line"/>
      <point x="178" y="180" type="line"/>
      <point x="214" y="384" type="line"/>
      <point x="22" y="384" type="line"/>
      <point x="36" y="468" type="line"/>
      <point x="228" y="468" type="line"/>
      <point x="275" y="730" type="line"/>
      <point x="366" y="730" type="line"/>
      <point x="319" y="468" type="line"/>
    </contour>
  </outline>
</glyph>
<glyph name="ellipsis" format="1">
  <advance width="573"/>
  <unicode hex="2026"/>
  <outline>
    <contour>
      <point x="483" y="110" type="line"/>
      <point x="463" y="0" type="line"/>
      <point x="363" y="0" type="line"/>
      <point x="383" y="110" type="line"/>
    </contour>
    <contour>
      <point x="292" y="110" type="line"/>
      <point x="272" y="0" type="line"/>
      <point x="172" y="0" type="line"/>
      <point x="192" y="110" type="line"/>
    </contour>
    <contour>
      <point x="101" y="110" type="line"/>
      <point x="81" y="0" type="line"/>
      <point x="-19" y="0" type="line"/>
      <point x="1" y="110" type="line"/>
    </contour>
  </outline>
</glyph>
<glyph name="perthousand" format="1">
  <advance width="1032"/>
  <unicode hex="2030"/>
  <outline>
    <contour>
      <point x="347" y="599" type="curve" smooth="yes"/>
      <point x="347" y="464"/>
      <point x="264" y="365"/>
      <point x="180" y="365" type="curve" smooth="yes"/>
      <point x="116" y="365"/>
      <point x="59" y="401"/>
      <point x="59" y="512" type="curve" smooth="yes"/>
      <point x="59" y="643"/>
      <point x="143" y="742"/>
      <point x="225" y="742" type="curve" smooth="yes"/>
      <point x="306" y="742"/>
      <point x="347" y="687"/>
    </contour>
    <contour>
      <point x="680" y="730" type="line"/>
      <point x="141" y="0" type="line"/>
      <point x="40" y="0" type="line"/>
      <point x="579" y="730" type="line"/>
    </contour>
    <contour>
      <point x="980" y="222" type="curve" smooth="yes"/>
      <point x="980" y="87"/>
      <point x="897" y="-12"/>
      <point x="813" y="-12" type="curve" smooth="yes"/>
      <point x="749" y="-12"/>
      <point x="692" y="24"/>
      <point x="692" y="135" type="curve" smooth="yes"/>
      <point x="692" y="266"/>
      <point x="776" y="365"/>
      <point x="858" y="365" type="curve" smooth="yes"/>
      <point x="939" y="365"/>
      <point x="980" y="310"/>
    </contour>
    <contour>
      <point x="660" y="222" type="curve" smooth="yes"/>
      <point x="660" y="87"/>
      <point x="577" y="-12"/>
      <point x="493" y="-12" type="curve" smooth="yes"/>
      <point x="429" y="-12"/>
      <point x="372" y="24"/>
      <point x="372" y="135" type="curve" smooth="yes"/>
      <point x="372" y="266"/>
      <point x="456" y="365"/>
      <point x="538" y="365" type="curve" smooth="yes"/>
      <point x="619" y="365"/>
      <point x="660" y="310"/>
    </contour>
    <contour>
      <point x="265" y="584" type="curve" smooth="yes"/>
      <point x="265" y="640"/>
      <point x="248" y="672"/>
      <point x="219" y="672" type="curve" smooth="yes"/>
      <point x="175" y="672"/>
      <point x="139" y="604"/>
      <point x="139" y="521" type="curve" smooth="yes"/>
      <point x="139" y="462"/>
      <point x="157" y="435"/>
      <point x="186" y="435" type="curve" smooth="yes"/>
      <point x="233" y="435"/>
      <point x="265" y="509"/>
    </contour>
    <contour>
      <point x="898" y="207" type="curve" smooth="yes"/>
      <point x="898" y="263"/>
      <point x="881" y="295"/>
      <point x="852" y="295" type="curve" smooth="yes"/>
      <point x="808" y="295"/>
      <point x="772" y="227"/>
      <point x="772" y="144" type="curve" smooth="yes"/>
      <point x="772" y="85"/>
      <point x="790" y="58"/>
      <point x="819" y="58" type="curve" smooth="yes"/>
      <point x="866" y="58"/>
      <point x="898" y="132"/>
    </contour>
    <contour>
      <point x="578" y="207" type="curve" smooth="yes"/>
      <point x="578" y="263"/>
      <point x="561" y="295"/>
      <point x="532" y="295" type="curve" smooth="yes"/>
      <point x="488" y="295"/>
      <point x="452" y="227"/>
      <point x="452" y="144" type="curve" smooth="yes"/>
      <point x="452" y="85"/>
      <point x="470" y="58"/>
      <point x="499" y="58" type="curve" smooth="yes"/>
      <point x="546" y="58"/>
      <point x="578" y="132"/>
    </contour>
  </outline>
</glyph>
<glyph name="guilsinglleft" format="1">
  <advance width="194"/>
  <unicode hex="2039"/>
  <outline>
    <contour>
      <point x="165" y="365" type="line"/>
      <point x="148" y="265" type="line"/>
      <point x="66" y="205" type="line"/>
      <point x="126" y="144" type="line"/>
      <point x="108" y="42" type="line"/>
      <point x="-11" y="167" type="line"/>
      <point x="3" y="242" type="line"/>
    </contour>
  </outline>
</glyph>
<glyph name="guilsinglright" format="1">
  <advance width="194"/>
  <unicode hex="203A"/>
  <outline>
    <contour>
      <point x="152" y="242" type="line"/>
      <point x="138" y="167" type="line"/>
      <point x="-26" y="42" type="line"/>
      <point x="-8" y="144" type="line"/>
      <point x="74" y="205" type="line"/>
      <point x="14" y="265" type="line"/>
      <point x="31" y="365" type="line"/>
    </contour>
  </outline>
</glyph>
<glyph name="fraction" format="1">
  <advance width="382"/>
  <unicode hex="2044"/>
  <outline>
    <contour>
      <point x="490" y="730" type="line"/>
      <point x="-3" y="0" type="line"/>
      <point x="-108" y="0" type="line"/>
      <point x="385" y="730" type="line"/>
    </contour>
  </outline>
</glyph>
<glyph name="Euro" format="1">
  <advance width="608"/>
  <unicode hex="20AC"/>
  <outline>
    <contour>
      <point x="198" y="295" type="line"/>
      <point x="194" y="183"/>
      <point x="224" y="80"/>
      <point x="320" y="80" type="curve" smooth="yes"/>
      <point x="388" y="80"/>
      <point x="435" y="124"/>
      <point x="474" y="186" type="curve"/>
      <point x="554" y="143" type="line"/>
      <point x="491" y="36"/>
      <point x="420" y="-12"/>
      <point x="314" y="-12" type="curve" smooth="yes"/>
      <point x="176" y="-12"/>
      <point x="85" y="91"/>
      <point x="94" y="295" type="curve"/>
      <point x="10" y="295" type="line"/>
      <point x="17" y="343" type="line"/>
      <point x="98" y="343" type="line"/>
      <point x="99" y="356"/>
      <point x="101" y="369"/>
      <point x="103" y="382" type="curve"/>
      <point x="22" y="382" type="line"/>
      <point x="29" y="430" type="line"/>
      <point x="112" y="430" type="line"/>
      <point x="153" y="612"/>
      <point x="255" y="742"/>
      <point x="406" y="742" type="curve" smooth="yes"/>
      <point x="523" y="742"/>
      <point x="585" y="688"/>
      <point x="619" y="591" type="curve"/>
      <point x="531" y="549" type="line"/>
      <point x="506" y="607"/>
      <point x="473" y="651"/>
      <point x="402" y="651" type="curve" smooth="yes"/>
      <point x="302" y="651"/>
      <point x="243" y="550"/>
      <point x="215" y="430" type="curve"/>
      <point x="422" y="430" type="line"/>
      <point x="415" y="382" type="line"/>
      <point x="206" y="382" type="line"/>
      <point x="204" y="369"/>
      <point x="202" y="355"/>
      <point x="201" y="343" type="curve"/>
      <point x="410" y="343" type="line"/>
      <point x="403" y="295" type="line"/>
    </contour>
  </outline>
</glyph>
<glyph name="trademark" format="1">
  <advance width="819"/>
  <unicode hex="2122"/>
  <outline>
    <contour>
      <point x="771" y="292" type="line"/>
      <point x="707" y="292" type="line"/>
      <point x="707" y="626" type="line"/>
      <point x="565" y="433" type="line"/>
      <point x="541" y="433" type="line"/>
      <point x="397" y="620" type="line"/>
      <point x="397" y="292" type="line"/>
      <point x="333" y="292" type="line"/>
      <point x="333" y="730" type="line"/>
      <point x="388" y="730" type="line"/>
      <point x="553" y="516" type="line"/>
      <point x="713" y="730" type="line"/>
      <point x="771" y="730" type="line"/>
    </contour>
    <contour>
      <point x="274" y="672" type="line"/>
      <point x="183" y="672" type="line"/>
      <point x="183" y="292" type="line"/>
      <point x="119" y="292" type="line"/>
      <point x="119" y="672" type="line"/>
      <point x="32" y="672" type="line"/>
      <point x="32" y="730" type="line"/>
      <point x="274" y="730" type="line"/>
    </contour>
  </outline>
</glyph>
<glyph name="minus" format="1">
  <advance width="555"/>
  <unicode hex="2212"/>
  <outline>
    <contour>
      <point x="26" y="262" type="line"/>
      <point x="44" y="364" type="line"/>
      <point x="525" y="364" type="line"/>
      <point x="507" y="262" type="line"/>
    </contour>
  </outline>
</glyph>
<glyph name="radical" format="1">
  <advance width="490"/>
  <unicode hex="221A"/>
  <outline>
    <contour>
      <point x="537" y="730" type="line"/>
      <point x="172" y="0" type="line"/>
      <point x="110" y="0" type="line"/>
      <point x="-1" y="316" type="line"/>
      <point x="100" y="316" type="line"/>
      <point x="155" y="142" type="line"/>
      <point x="440" y="730" type="line"/>
    </contour>
  </outline>
</glyph>
<glyph name="f_f_i" format="1">
  <advance width="685"/>
  <unicode hex="FB03"/>
  <outline>
    <contour>
      <point x="678" y="626" type="line"/>
      <point x="658" y="511" type="line"/>
      <point x="567" y="511" type="line"/>
      <point x="587" y="626" type="line"/>
    </contour>
    <contour>
      <point x="544" y="723" type="curve"/>
      <point x="526" y="646" type="line"/>
      <point x="517" y="649"/>
      <point x="505" y="652"/>
      <point x="487" y="652" type="curve" smooth="yes"/>
      <point x="456" y="652"/>
      <point x="440" y="623"/>
      <point x="427" y="551" type="curve" smooth="yes"/>
      <point x="403" y="416" type="line"/>
      <point x="482" y="416" type="line"/>
      <point x="468" y="332" type="line"/>
      <point x="389" y="332" type="line"/>
      <point x="299" y="-179" type="line"/>
      <point x="208" y="-179" type="line"/>
      <point x="298" y="332" type="line"/>
      <point x="150" y="332" type="line"/>
      <point x="60" y="-179" type="line"/>
      <point x="-31" y="-179" type="line"/>
      <point x="59" y="332" type="line"/>
      <point x="9" y="332" type="line"/>
      <point x="23" y="416" type="line"/>
      <point x="73" y="416" type="line"/>
      <point x="103" y="586" type="line" smooth="yes"/>
      <point x="122" y="692"/>
      <point x="178" y="733"/>
      <point x="236" y="733" type="curve" smooth="yes"/>
      <point x="268" y="733"/>
      <point x="288" y="731"/>
      <point x="305" y="723" type="curve"/>
      <point x="287" y="646" type="line"/>
      <point x="277" y="649"/>
      <point x="266" y="652"/>
      <point x="248" y="652" type="curve" smooth="yes"/>
      <point x="217" y="652"/>
      <point x="201" y="623"/>
      <point x="188" y="551" type="curve" smooth="yes"/>
      <point x="164" y="416" type="line"/>
      <point x="312" y="416" type="line"/>
      <point x="342" y="586" type="line" smooth="yes"/>
      <point x="361" y="692"/>
      <point x="417" y="733"/>
      <point x="475" y="733" type="curve" smooth="yes"/>
      <point x="507" y="733"/>
      <point x="527" y="731"/>
    </contour>
    <contour>
      <point x="641" y="416" type="line"/>
      <point x="568" y="0" type="line"/>
      <point x="477" y="0" type="line"/>
      <point x="550" y="416" type="line"/>
    </contour>
  </outline>
</glyph>
<glyph name="bullet" format="1">
  <advance width="342"/>
  <outline>
    <contour>
      <point x="282" y="379" type="curve" smooth="yes"/>
      <point x="282" y="318"/>
      <point x="232" y="268"/>
      <point x="171" y="268" type="curve" smooth="yes"/>
      <point x="110" y="268"/>
      <point x="60" y="318"/>
      <point x="60" y="379" type="curve" smooth="yes"/>
      <point x="60" y="440"/>
      <point x="110" y="490"/>
      <point x="171" y="490" type="curve" smooth="yes"/>
      <point x="232" y="490"/>
      <point x="282" y="440"/>
    </contour>
  </outline>
</glyph>
<glyph name="macron" format="1">
  <advance width="500"/>
  <outline>
    <contour>
      <point x="428" y="556" type="line"/>
      <point x="416" y="490" type="line"/>
      <point x="116" y="490" type="line"/>
      <point x="128" y="556" type="line"/>
    </contour>
  </outline>
</glyph>
<glyph name="onesuperior" format="1">
  <advance width="318"/>
  <outline>
    <contour>
      <point x="124" y="307" type="line"/>
      <point x="178" y="611" type="line"/>
      <point x="157" y="590"/>
      <point x="126" y="581"/>
      <point x="98" y="577" type="curve"/>
      <point x="113" y="664" type="line"/>
      <point x="157" y="669"/>
      <point x="201" y="694"/>
      <point x="221" y="729" type="curve"/>
      <point x="281" y="729" type="line"/>
      <point x="206" y="307" type="line"/>
    </contour>
  </outline>
</glyph>
<glyph name="threesuperior" format="1">
  <advance width="439"/>
  <outline>
    <contour>
      <point x="399" y="633" type="curve" smooth="yes"/>
      <point x="399" y="578"/>
      <point x="363" y="541"/>
      <point x="327" y="534" type="curve"/>
      <point x="364" y="527"/>
      <point x="381" y="494"/>
      <point x="381" y="460" type="curve" smooth="yes"/>
      <point x="381" y="373"/>
      <point x="314" y="302"/>
      <point x="200" y="302" type="curve" smooth="yes"/>
      <point x="149" y="302"/>
      <point x="98" y="322"/>
      <point x="76" y="342" type="curve"/>
      <point x="123" y="402" type="line"/>
      <point x="143" y="386"/>
      <point x="176" y="375"/>
      <point x="207" y="375" type="curve" smooth="yes"/>
      <point x="267" y="375"/>
      <point x="303" y="414"/>
      <point x="303" y="452" type="curve" smooth="yes"/>
      <point x="303" y="487"/>
      <point x="280" y="499"/>
      <point x="239" y="499" type="curve" smooth="yes"/>
      <point x="198" y="499" type="line"/>
      <point x="206" y="560" type="line"/>
      <point x="247" y="560" type="line" smooth="yes"/>
      <point x="287" y="560"/>
      <point x="321" y="579"/>
      <point x="321" y="621" type="curve" smooth="yes"/>
      <point x="321" y="637"/>
      <point x="316" y="665"/>
      <point x="266" y="665" type="curve" smooth="yes"/>
      <point x="223" y="665"/>
      <point x="197" y="637"/>
      <point x="180" y="615" type="curve"/>
      <point x="123" y="656" type="line"/>
      <point x="141" y="685"/>
      <point x="191" y="739"/>
      <point x="274" y="739" type="curve" smooth="yes"/>
      <point x="381" y="739"/>
      <point x="399" y="669"/>
    </contour>
  </outline>
</glyph>
